<svg xmlns="http://www.w3.org/2000/svg" xmlns:xlink="http://www.w3.org/1999/xlink" height="231.0" viewBox="0.0 0.0 332.0 231.0" width="332.0">
<g class="graph" id="graph0" transform="scale(1.0 1.0) rotate(0) translate(4 227)">
<title>G</title>
<polygon fill="#ffffff" points="-4,4 -4,-227 328,-227 328,4 -4,4" stroke="transparent" />
<g class="cluster" id="clust4">
<title>cluster_legend</title>
</g>

<g class="node" id="node1">
<title>node1</title>
<svg height="45px" preserveAspectRatio="xMinYMin meet" version="1.1" viewBox="0 0 196.23 60.575625" width="147px" x="4.5" y="-95.5">
 <defs>
  <style type="text/css">
*{stroke-linecap:butt;stroke-linejoin:round;}
  </style>
 </defs>
 <g id="figure_1">
  <g id="patch_1">
   <path d="M 0 60.575625  L 196.23 60.575625  L 196.23 0  L 0 0  z " style="fill:#ffffff;" />
  </g>
  <g id="axes_1">
   <g id="patch_2">
    <path d="M 12.09 30.219375  L 196.23 30.219375  L 196.23 3.039375  L 12.09 3.039375  z " style="fill:#ffffff;" />
   </g>
   <g id="patch_3">
    <path clip-path="url(#pdc9d65829a)" d="M 12.09 30.219375  L 21.320075 30.219375  L 21.320075 3.039375  L 12.09 3.039375  z " style="fill:#fefebb;stroke:#444443;stroke-linejoin:miter;stroke-width:0.5;" />
   </g>
   <g id="patch_4">
    <path clip-path="url(#pdc9d65829a)" d="M 21.320075 30.219375  L 30.55015 30.219375  L 30.55015 30.219375  L 21.320075 30.219375  z " style="fill:#fefebb;stroke:#444443;stroke-linejoin:miter;stroke-width:0.5;" />
   </g>
   <g id="patch_5">
    <path clip-path="url(#pdc9d65829a)" d="M 30.55015 30.219375  L 39.780226 30.219375  L 39.780226 30.219375  L 30.55015 30.219375  z " style="fill:#fefebb;stroke:#444443;stroke-linejoin:miter;stroke-width:0.5;" />
   </g>
   <g id="patch_6">
    <path clip-path="url(#pdc9d65829a)" d="M 39.780226 30.219375  L 49.010301 30.219375  L 49.010301 30.219375  L 39.780226 30.219375  z " style="fill:#fefebb;stroke:#444443;stroke-linejoin:miter;stroke-width:0.5;" />
   </g>
   <g id="patch_7">
    <path clip-path="url(#pdc9d65829a)" d="M 49.010301 30.219375  L 58.240376 30.219375  L 58.240376 30.219375  L 49.010301 30.219375  z " style="fill:#fefebb;stroke:#444443;stroke-linejoin:miter;stroke-width:0.5;" />
   </g>
   <g id="patch_8">
    <path clip-path="url(#pdc9d65829a)" d="M 58.240376 30.219375  L 67.470451 30.219375  L 67.470451 30.219375  L 58.240376 30.219375  z " style="fill:#fefebb;stroke:#444443;stroke-linejoin:miter;stroke-width:0.5;" />
   </g>
   <g id="patch_9">
    <path clip-path="url(#pdc9d65829a)" d="M 67.470451 30.219375  L 76.700526 30.219375  L 76.700526 30.219375  L 67.470451 30.219375  z " style="fill:#fefebb;stroke:#444443;stroke-linejoin:miter;stroke-width:0.5;" />
   </g>
   <g id="patch_10">
    <path clip-path="url(#pdc9d65829a)" d="M 76.700526 30.219375  L 85.930602 30.219375  L 85.930602 30.219375  L 76.700526 30.219375  z " style="fill:#fefebb;stroke:#444443;stroke-linejoin:miter;stroke-width:0.5;" />
   </g>
   <g id="patch_11">
    <path clip-path="url(#pdc9d65829a)" d="M 85.930602 30.219375  L 95.160677 30.219375  L 95.160677 30.219375  L 85.930602 30.219375  z " style="fill:#fefebb;stroke:#444443;stroke-linejoin:miter;stroke-width:0.5;" />
   </g>
   <g id="patch_12">
    <path clip-path="url(#pdc9d65829a)" d="M 95.160677 30.219375  L 104.390752 30.219375  L 104.390752 30.219375  L 95.160677 30.219375  z " style="fill:#fefebb;stroke:#444443;stroke-linejoin:miter;stroke-width:0.5;" />
   </g>
   <g id="patch_13">
    <path clip-path="url(#pdc9d65829a)" d="M 104.390752 30.219375  L 113.620827 30.219375  L 113.620827 30.219375  L 104.390752 30.219375  z " style="fill:#fefebb;stroke:#444443;stroke-linejoin:miter;stroke-width:0.5;" />
   </g>
   <g id="patch_14">
    <path clip-path="url(#pdc9d65829a)" d="M 113.620827 30.219375  L 122.850902 30.219375  L 122.850902 30.219375  L 113.620827 30.219375  z " style="fill:#fefebb;stroke:#444443;stroke-linejoin:miter;stroke-width:0.5;" />
   </g>
   <g id="patch_15">
    <path clip-path="url(#pdc9d65829a)" d="M 122.850902 30.219375  L 132.080977 30.219375  L 132.080977 30.219375  L 122.850902 30.219375  z " style="fill:#fefebb;stroke:#444443;stroke-linejoin:miter;stroke-width:0.5;" />
   </g>
   <g id="patch_16">
    <path clip-path="url(#pdc9d65829a)" d="M 132.080977 30.219375  L 141.311053 30.219375  L 141.311053 30.219375  L 132.080977 30.219375  z " style="fill:#fefebb;stroke:#444443;stroke-linejoin:miter;stroke-width:0.5;" />
   </g>
   <g id="patch_17">
    <path clip-path="url(#pdc9d65829a)" d="M 141.311053 30.219375  L 150.541128 30.219375  L 150.541128 30.219375  L 141.311053 30.219375  z " style="fill:#fefebb;stroke:#444443;stroke-linejoin:miter;stroke-width:0.5;" />
   </g>
   <g id="patch_18">
    <path clip-path="url(#pdc9d65829a)" d="M 150.541128 30.219375  L 159.771203 30.219375  L 159.771203 30.219375  L 150.541128 30.219375  z " style="fill:#fefebb;stroke:#444443;stroke-linejoin:miter;stroke-width:0.5;" />
   </g>
   <g id="patch_19">
    <path clip-path="url(#pdc9d65829a)" d="M 159.771203 30.219375  L 169.001278 30.219375  L 169.001278 30.219375  L 159.771203 30.219375  z " style="fill:#fefebb;stroke:#444443;stroke-linejoin:miter;stroke-width:0.5;" />
   </g>
   <g id="patch_20">
    <path clip-path="url(#pdc9d65829a)" d="M 169.001278 30.219375  L 178.231353 30.219375  L 178.231353 30.219375  L 169.001278 30.219375  z " style="fill:#fefebb;stroke:#444443;stroke-linejoin:miter;stroke-width:0.5;" />
   </g>
   <g id="patch_21">
    <path clip-path="url(#pdc9d65829a)" d="M 178.231353 30.219375  L 187.461429 30.219375  L 187.461429 30.219375  L 178.231353 30.219375  z " style="fill:#fefebb;stroke:#444443;stroke-linejoin:miter;stroke-width:0.5;" />
   </g>
   <g id="patch_22">
    <path clip-path="url(#pdc9d65829a)" d="M 12.09 3.039375  L 21.320075 3.039375  L 21.320075 3.039375  L 12.09 3.039375  z " style="fill:#a1dab4;stroke:#444443;stroke-linejoin:miter;stroke-width:0.5;" />
   </g>
   <g id="patch_23">
    <path clip-path="url(#pdc9d65829a)" d="M 21.320075 30.219375  L 30.55015 30.219375  L 30.55015 30.219375  L 21.320075 30.219375  z " style="fill:#a1dab4;stroke:#444443;stroke-linejoin:miter;stroke-width:0.5;" />
   </g>
   <g id="patch_24">
    <path clip-path="url(#pdc9d65829a)" d="M 30.55015 30.219375  L 39.780226 30.219375  L 39.780226 30.219375  L 30.55015 30.219375  z " style="fill:#a1dab4;stroke:#444443;stroke-linejoin:miter;stroke-width:0.5;" />
   </g>
   <g id="patch_25">
    <path clip-path="url(#pdc9d65829a)" d="M 39.780226 30.219375  L 49.010301 30.219375  L 49.010301 30.219375  L 39.780226 30.219375  z " style="fill:#a1dab4;stroke:#444443;stroke-linejoin:miter;stroke-width:0.5;" />
   </g>
   <g id="patch_26">
    <path clip-path="url(#pdc9d65829a)" d="M 49.010301 30.219375  L 58.240376 30.219375  L 58.240376 30.219375  L 49.010301 30.219375  z " style="fill:#a1dab4;stroke:#444443;stroke-linejoin:miter;stroke-width:0.5;" />
   </g>
   <g id="patch_27">
    <path clip-path="url(#pdc9d65829a)" d="M 58.240376 30.219375  L 67.470451 30.219375  L 67.470451 30.219375  L 58.240376 30.219375  z " style="fill:#a1dab4;stroke:#444443;stroke-linejoin:miter;stroke-width:0.5;" />
   </g>
   <g id="patch_28">
    <path clip-path="url(#pdc9d65829a)" d="M 67.470451 30.219375  L 76.700526 30.219375  L 76.700526 30.219375  L 67.470451 30.219375  z " style="fill:#a1dab4;stroke:#444443;stroke-linejoin:miter;stroke-width:0.5;" />
   </g>
   <g id="patch_29">
    <path clip-path="url(#pdc9d65829a)" d="M 76.700526 30.219375  L 85.930602 30.219375  L 85.930602 30.219375  L 76.700526 30.219375  z " style="fill:#a1dab4;stroke:#444443;stroke-linejoin:miter;stroke-width:0.5;" />
   </g>
   <g id="patch_30">
    <path clip-path="url(#pdc9d65829a)" d="M 85.930602 30.219375  L 95.160677 30.219375  L 95.160677 30.219375  L 85.930602 30.219375  z " style="fill:#a1dab4;stroke:#444443;stroke-linejoin:miter;stroke-width:0.5;" />
   </g>
   <g id="patch_31">
    <path clip-path="url(#pdc9d65829a)" d="M 95.160677 30.219375  L 104.390752 30.219375  L 104.390752 30.219375  L 95.160677 30.219375  z " style="fill:#a1dab4;stroke:#444443;stroke-linejoin:miter;stroke-width:0.5;" />
   </g>
   <g id="patch_32">
    <path clip-path="url(#pdc9d65829a)" d="M 104.390752 30.219375  L 113.620827 30.219375  L 113.620827 30.219375  L 104.390752 30.219375  z " style="fill:#a1dab4;stroke:#444443;stroke-linejoin:miter;stroke-width:0.5;" />
   </g>
   <g id="patch_33">
    <path clip-path="url(#pdc9d65829a)" d="M 113.620827 30.219375  L 122.850902 30.219375  L 122.850902 30.219375  L 113.620827 30.219375  z " style="fill:#a1dab4;stroke:#444443;stroke-linejoin:miter;stroke-width:0.5;" />
   </g>
   <g id="patch_34">
    <path clip-path="url(#pdc9d65829a)" d="M 122.850902 30.219375  L 132.080977 30.219375  L 132.080977 30.219375  L 122.850902 30.219375  z " style="fill:#a1dab4;stroke:#444443;stroke-linejoin:miter;stroke-width:0.5;" />
   </g>
   <g id="patch_35">
    <path clip-path="url(#pdc9d65829a)" d="M 132.080977 30.219375  L 141.311053 30.219375  L 141.311053 30.219375  L 132.080977 30.219375  z " style="fill:#a1dab4;stroke:#444443;stroke-linejoin:miter;stroke-width:0.5;" />
   </g>
   <g id="patch_36">
    <path clip-path="url(#pdc9d65829a)" d="M 141.311053 30.219375  L 150.541128 30.219375  L 150.541128 30.219375  L 141.311053 30.219375  z " style="fill:#a1dab4;stroke:#444443;stroke-linejoin:miter;stroke-width:0.5;" />
   </g>
   <g id="patch_37">
    <path clip-path="url(#pdc9d65829a)" d="M 150.541128 30.219375  L 159.771203 30.219375  L 159.771203 30.219375  L 150.541128 30.219375  z " style="fill:#a1dab4;stroke:#444443;stroke-linejoin:miter;stroke-width:0.5;" />
   </g>
   <g id="patch_38">
    <path clip-path="url(#pdc9d65829a)" d="M 159.771203 30.219375  L 169.001278 30.219375  L 169.001278 30.219375  L 159.771203 30.219375  z " style="fill:#a1dab4;stroke:#444443;stroke-linejoin:miter;stroke-width:0.5;" />
   </g>
   <g id="patch_39">
    <path clip-path="url(#pdc9d65829a)" d="M 169.001278 30.219375  L 178.231353 30.219375  L 178.231353 30.219375  L 169.001278 30.219375  z " style="fill:#a1dab4;stroke:#444443;stroke-linejoin:miter;stroke-width:0.5;" />
   </g>
   <g id="patch_40">
    <path clip-path="url(#pdc9d65829a)" d="M 178.231353 30.219375  L 187.461429 30.219375  L 187.461429 3.039375  L 178.231353 3.039375  z " style="fill:#a1dab4;stroke:#444443;stroke-linejoin:miter;stroke-width:0.5;" />
   </g>
   <g id="patch_41">
    <path d="M 99.775714 31.034775  L 96.461194 38.373375  L 103.090234 38.373375  z " style="fill:#444443;" />
   </g>
   <g id="matplotlib.axis_1">
    <g id="xtick_1">
     <g id="line2d_1">
      <defs>
       <path d="M 0 0  L 0 3.5  " id="mf1641dc8f2" style="stroke:#000000;stroke-width:0.3;" />
      </defs>
      <g>
       <use style="stroke:#000000;stroke-width:0.3;" x="12.09" y="30.219375" xlink:href="#mf1641dc8f2" />
      </g>
     </g>
     <g id="text_1">
      
      <defs>
       <path d="M 31.78125 66.40625  Q 24.171875 66.40625 20.328125 58.90625  Q 16.5 51.421875 16.5 36.375  Q 16.5 21.390625 20.328125 13.890625  Q 24.171875 6.390625 31.78125 6.390625  Q 39.453125 6.390625 43.28125 13.890625  Q 47.125 21.390625 47.125 36.375  Q 47.125 51.421875 43.28125 58.90625  Q 39.453125 66.40625 31.78125 66.40625  z M 31.78125 74.21875  Q 44.046875 74.21875 50.515625 64.515625  Q 56.984375 54.828125 56.984375 36.375  Q 56.984375 17.96875 50.515625 8.265625  Q 44.046875 -1.421875 31.78125 -1.421875  Q 19.53125 -1.421875 13.0625 8.265625  Q 6.59375 17.96875 6.59375 36.375  Q 6.59375 54.828125 13.0625 64.515625  Q 19.53125 74.21875 31.78125 74.21875  z " id="DejaVuSans-48" />
      </defs>
      <g style="fill:#444443;" transform="translate(9.545 43.298125)scale(0.08 -0.08)">
       <use xlink:href="#DejaVuSans-48" />
      </g>
     </g>
    </g>
    <g id="xtick_2">
     <g id="line2d_2">
      <g>
       <use style="stroke:#000000;stroke-width:0.3;" x="187.461429" y="30.219375" xlink:href="#mf1641dc8f2" />
      </g>
     </g>
     <g id="text_2">
      
      <defs>
       <path d="M 12.40625 8.296875  L 28.515625 8.296875  L 28.515625 63.921875  L 10.984375 60.40625  L 10.984375 69.390625  L 28.421875 72.90625  L 38.28125 72.90625  L 38.28125 8.296875  L 54.390625 8.296875  L 54.390625 0  L 12.40625 0  z " id="DejaVuSans-49" />
      </defs>
      <g style="fill:#444443;" transform="translate(184.916429 43.298125)scale(0.08 -0.08)">
       <use xlink:href="#DejaVuSans-49" />
      </g>
     </g>
    </g>
    <g id="text_3">
     
     <defs>
      <path d="M 9.8125 72.90625  L 23.09375 72.90625  L 55.421875 11.921875  L 55.421875 72.90625  L 64.984375 72.90625  L 64.984375 0  L 51.703125 0  L 19.390625 60.984375  L 19.390625 0  L 9.8125 0  z " id="DejaVuSans-78" />
      <path d="M 30.609375 48.390625  Q 23.390625 48.390625 19.1875 42.75  Q 14.984375 37.109375 14.984375 27.296875  Q 14.984375 17.484375 19.15625 11.84375  Q 23.34375 6.203125 30.609375 6.203125  Q 37.796875 6.203125 41.984375 11.859375  Q 46.1875 17.53125 46.1875 27.296875  Q 46.1875 37.015625 41.984375 42.703125  Q 37.796875 48.390625 30.609375 48.390625  z M 30.609375 56  Q 42.328125 56 49.015625 48.375  Q 55.71875 40.765625 55.71875 27.296875  Q 55.71875 13.875 49.015625 6.21875  Q 42.328125 -1.421875 30.609375 -1.421875  Q 18.84375 -1.421875 12.171875 6.21875  Q 5.515625 13.875 5.515625 27.296875  Q 5.515625 40.765625 12.171875 48.375  Q 18.84375 56 30.609375 56  z " id="DejaVuSans-111" />
      <path d="M 54.890625 33.015625  L 54.890625 0  L 45.90625 0  L 45.90625 32.71875  Q 45.90625 40.484375 42.875 44.328125  Q 39.84375 48.1875 33.796875 48.1875  Q 26.515625 48.1875 22.3125 43.546875  Q 18.109375 38.921875 18.109375 30.90625  L 18.109375 0  L 9.078125 0  L 9.078125 54.6875  L 18.109375 54.6875  L 18.109375 46.1875  Q 21.34375 51.125 25.703125 53.5625  Q 30.078125 56 35.796875 56  Q 45.21875 56 50.046875 50.171875  Q 54.890625 44.34375 54.890625 33.015625  z " id="DejaVuSans-110" />
      <path d="M 56.203125 29.59375  L 56.203125 25.203125  L 14.890625 25.203125  Q 15.484375 15.921875 20.484375 11.0625  Q 25.484375 6.203125 34.421875 6.203125  Q 39.59375 6.203125 44.453125 7.46875  Q 49.3125 8.734375 54.109375 11.28125  L 54.109375 2.78125  Q 49.265625 0.734375 44.1875 -0.34375  Q 39.109375 -1.421875 33.890625 -1.421875  Q 20.796875 -1.421875 13.15625 6.1875  Q 5.515625 13.8125 5.515625 26.8125  Q 5.515625 40.234375 12.765625 48.109375  Q 20.015625 56 32.328125 56  Q 43.359375 56 49.78125 48.890625  Q 56.203125 41.796875 56.203125 29.59375  z M 47.21875 32.234375  Q 47.125 39.59375 43.09375 43.984375  Q 39.0625 48.390625 32.421875 48.390625  Q 24.90625 48.390625 20.390625 44.140625  Q 15.875 39.890625 15.1875 32.171875  z " id="DejaVuSans-101" />
     </defs>
     <g style="fill:#444443;" transform="translate(88.505625 58.08)scale(0.12 -0.12)">
      <use xlink:href="#DejaVuSans-78" />
      <use x="74.804688" xlink:href="#DejaVuSans-111" />
      <use x="135.986328" xlink:href="#DejaVuSans-110" />
      <use x="199.365234" xlink:href="#DejaVuSans-101" />
     </g>
    </g>
   </g>
   <g id="matplotlib.axis_2">
    <g id="ytick_1">
     <g id="line2d_3">
      <defs>
       <path d="M 0 0  L -3.5 0  " id="m64b0bc722c" style="stroke:#000000;stroke-width:0.3;" />
      </defs>
      <g>
       <use style="stroke:#000000;stroke-width:0.3;" x="12.09" y="30.219375" xlink:href="#m64b0bc722c" />
      </g>
     </g>
     <g id="text_4">
      
      <g style="fill:#444443;" transform="translate(0 33.25875)scale(0.08 -0.08)">
       <use xlink:href="#DejaVuSans-48" />
      </g>
     </g>
    </g>
    <g id="ytick_2">
     <g id="line2d_4">
      <g>
       <use style="stroke:#000000;stroke-width:0.3;" x="12.09" y="3.039375" xlink:href="#m64b0bc722c" />
      </g>
     </g>
     <g id="text_5">
      
      <g style="fill:#444443;" transform="translate(0 6.07875)scale(0.08 -0.08)">
       <use xlink:href="#DejaVuSans-49" />
      </g>
     </g>
    </g>
   </g>
   <g id="patch_42">
    <path d="M 12.09 30.219375  L 12.09 3.039375  " style="fill:none;stroke:#000000;stroke-linecap:square;stroke-linejoin:miter;stroke-width:0.3;" />
   </g>
   <g id="patch_43">
    <path d="M 12.09 30.219375  L 196.23 30.219375  " style="fill:none;stroke:#000000;stroke-linecap:square;stroke-linejoin:miter;stroke-width:0.3;" />
   </g>
   <g id="text_6">
    
    <defs>
     <path d="M 10.6875 12.40625  L 21 12.40625  L 21 0  L 10.6875 0  z " id="DejaVuSans-46" />
     <path d="M 10.796875 72.90625  L 49.515625 72.90625  L 49.515625 64.59375  L 19.828125 64.59375  L 19.828125 46.734375  Q 21.96875 47.46875 24.109375 47.828125  Q 26.265625 48.1875 28.421875 48.1875  Q 40.625 48.1875 47.75 41.5  Q 54.890625 34.8125 54.890625 23.390625  Q 54.890625 11.625 47.5625 5.09375  Q 40.234375 -1.421875 26.90625 -1.421875  Q 22.3125 -1.421875 17.546875 -0.640625  Q 12.796875 0.140625 7.71875 1.703125  L 7.71875 11.625  Q 12.109375 9.234375 16.796875 8.0625  Q 21.484375 6.890625 26.703125 6.890625  Q 35.15625 6.890625 40.078125 11.328125  Q 45.015625 15.765625 45.015625 23.390625  Q 45.015625 31 40.078125 35.4375  Q 35.15625 39.890625 26.703125 39.890625  Q 22.75 39.890625 18.8125 39.015625  Q 14.890625 38.140625 10.796875 36.28125  z " id="DejaVuSans-53" />
    </defs>
    <g style="fill:#444443;" transform="translate(90.869464 46.527375)scale(0.08 -0.08)">
     <use xlink:href="#DejaVuSans-48" />
     <use x="63.623047" xlink:href="#DejaVuSans-46" />
     <use x="95.410156" xlink:href="#DejaVuSans-53" />
     <use x="159.033203" xlink:href="#DejaVuSans-48" />
    </g>
   </g>
  </g>
 </g>
 <defs>
  <clipPath id="pdc9d65829a">
   <rect height="27.18" width="184.14" x="12.09" y="3.039375" />
  </clipPath>
 </defs>
</svg></g>

<g class="node" id="node2">
<title>node4</title>
<svg height="45px" preserveAspectRatio="xMinYMin meet" version="1.1" viewBox="0 0 196.23 60.575625" width="147px" x="173.5" y="-95.5">
 <defs>
  <style type="text/css">
*{stroke-linecap:butt;stroke-linejoin:round;}
  </style>
 </defs>
 <g id="figure_1">
  <g id="patch_1">
   <path d="M 0 60.575625  L 196.23 60.575625  L 196.23 0  L 0 0  z " style="fill:#ffffff;" />
  </g>
  <g id="axes_1">
   <g id="patch_2">
    <path d="M 12.09 30.219375  L 196.23 30.219375  L 196.23 3.039375  L 12.09 3.039375  z " style="fill:#ffffff;" />
   </g>
   <g id="patch_3">
    <path clip-path="url(#pd9d91a3516)" d="M 12.09 30.219375  L 21.320075 30.219375  L 21.320075 30.219375  L 12.09 30.219375  z " style="fill:#fefebb;stroke:#444443;stroke-linejoin:miter;stroke-width:0.5;" />
   </g>
   <g id="patch_4">
    <path clip-path="url(#pd9d91a3516)" d="M 21.320075 30.219375  L 30.55015 30.219375  L 30.55015 30.219375  L 21.320075 30.219375  z " style="fill:#fefebb;stroke:#444443;stroke-linejoin:miter;stroke-width:0.5;" />
   </g>
   <g id="patch_5">
    <path clip-path="url(#pd9d91a3516)" d="M 30.55015 30.219375  L 39.780226 30.219375  L 39.780226 30.219375  L 30.55015 30.219375  z " style="fill:#fefebb;stroke:#444443;stroke-linejoin:miter;stroke-width:0.5;" />
   </g>
   <g id="patch_6">
    <path clip-path="url(#pd9d91a3516)" d="M 39.780226 30.219375  L 49.010301 30.219375  L 49.010301 30.219375  L 39.780226 30.219375  z " style="fill:#fefebb;stroke:#444443;stroke-linejoin:miter;stroke-width:0.5;" />
   </g>
   <g id="patch_7">
    <path clip-path="url(#pd9d91a3516)" d="M 49.010301 30.219375  L 58.240376 30.219375  L 58.240376 30.219375  L 49.010301 30.219375  z " style="fill:#fefebb;stroke:#444443;stroke-linejoin:miter;stroke-width:0.5;" />
   </g>
   <g id="patch_8">
    <path clip-path="url(#pd9d91a3516)" d="M 58.240376 30.219375  L 67.470451 30.219375  L 67.470451 30.219375  L 58.240376 30.219375  z " style="fill:#fefebb;stroke:#444443;stroke-linejoin:miter;stroke-width:0.5;" />
   </g>
   <g id="patch_9">
    <path clip-path="url(#pd9d91a3516)" d="M 67.470451 30.219375  L 76.700526 30.219375  L 76.700526 30.219375  L 67.470451 30.219375  z " style="fill:#fefebb;stroke:#444443;stroke-linejoin:miter;stroke-width:0.5;" />
   </g>
   <g id="patch_10">
    <path clip-path="url(#pd9d91a3516)" d="M 76.700526 30.219375  L 85.930602 30.219375  L 85.930602 30.219375  L 76.700526 30.219375  z " style="fill:#fefebb;stroke:#444443;stroke-linejoin:miter;stroke-width:0.5;" />
   </g>
   <g id="patch_11">
    <path clip-path="url(#pd9d91a3516)" d="M 85.930602 30.219375  L 95.160677 30.219375  L 95.160677 30.219375  L 85.930602 30.219375  z " style="fill:#fefebb;stroke:#444443;stroke-linejoin:miter;stroke-width:0.5;" />
   </g>
   <g id="patch_12">
    <path clip-path="url(#pd9d91a3516)" d="M 95.160677 30.219375  L 104.390752 30.219375  L 104.390752 30.219375  L 95.160677 30.219375  z " style="fill:#fefebb;stroke:#444443;stroke-linejoin:miter;stroke-width:0.5;" />
   </g>
   <g id="patch_13">
    <path clip-path="url(#pd9d91a3516)" d="M 104.390752 30.219375  L 113.620827 30.219375  L 113.620827 30.219375  L 104.390752 30.219375  z " style="fill:#fefebb;stroke:#444443;stroke-linejoin:miter;stroke-width:0.5;" />
   </g>
   <g id="patch_14">
    <path clip-path="url(#pd9d91a3516)" d="M 113.620827 30.219375  L 122.850902 30.219375  L 122.850902 30.219375  L 113.620827 30.219375  z " style="fill:#fefebb;stroke:#444443;stroke-linejoin:miter;stroke-width:0.5;" />
   </g>
   <g id="patch_15">
    <path clip-path="url(#pd9d91a3516)" d="M 122.850902 30.219375  L 132.080977 30.219375  L 132.080977 30.219375  L 122.850902 30.219375  z " style="fill:#fefebb;stroke:#444443;stroke-linejoin:miter;stroke-width:0.5;" />
   </g>
   <g id="patch_16">
    <path clip-path="url(#pd9d91a3516)" d="M 132.080977 30.219375  L 141.311053 30.219375  L 141.311053 30.219375  L 132.080977 30.219375  z " style="fill:#fefebb;stroke:#444443;stroke-linejoin:miter;stroke-width:0.5;" />
   </g>
   <g id="patch_17">
    <path clip-path="url(#pd9d91a3516)" d="M 141.311053 30.219375  L 150.541128 30.219375  L 150.541128 30.219375  L 141.311053 30.219375  z " style="fill:#fefebb;stroke:#444443;stroke-linejoin:miter;stroke-width:0.5;" />
   </g>
   <g id="patch_18">
    <path clip-path="url(#pd9d91a3516)" d="M 150.541128 30.219375  L 159.771203 30.219375  L 159.771203 30.219375  L 150.541128 30.219375  z " style="fill:#fefebb;stroke:#444443;stroke-linejoin:miter;stroke-width:0.5;" />
   </g>
   <g id="patch_19">
    <path clip-path="url(#pd9d91a3516)" d="M 159.771203 30.219375  L 169.001278 30.219375  L 169.001278 30.219375  L 159.771203 30.219375  z " style="fill:#fefebb;stroke:#444443;stroke-linejoin:miter;stroke-width:0.5;" />
   </g>
   <g id="patch_20">
    <path clip-path="url(#pd9d91a3516)" d="M 169.001278 30.219375  L 178.231353 30.219375  L 178.231353 30.219375  L 169.001278 30.219375  z " style="fill:#fefebb;stroke:#444443;stroke-linejoin:miter;stroke-width:0.5;" />
   </g>
   <g id="patch_21">
    <path clip-path="url(#pd9d91a3516)" d="M 178.231353 30.219375  L 187.461429 30.219375  L 187.461429 3.039375  L 178.231353 3.039375  z " style="fill:#fefebb;stroke:#444443;stroke-linejoin:miter;stroke-width:0.5;" />
   </g>
   <g id="patch_22">
    <path clip-path="url(#pd9d91a3516)" d="M 12.09 30.219375  L 21.320075 30.219375  L 21.320075 3.039375  L 12.09 3.039375  z " style="fill:#a1dab4;stroke:#444443;stroke-linejoin:miter;stroke-width:0.5;" />
   </g>
   <g id="patch_23">
    <path clip-path="url(#pd9d91a3516)" d="M 21.320075 30.219375  L 30.55015 30.219375  L 30.55015 30.219375  L 21.320075 30.219375  z " style="fill:#a1dab4;stroke:#444443;stroke-linejoin:miter;stroke-width:0.5;" />
   </g>
   <g id="patch_24">
    <path clip-path="url(#pd9d91a3516)" d="M 30.55015 30.219375  L 39.780226 30.219375  L 39.780226 30.219375  L 30.55015 30.219375  z " style="fill:#a1dab4;stroke:#444443;stroke-linejoin:miter;stroke-width:0.5;" />
   </g>
   <g id="patch_25">
    <path clip-path="url(#pd9d91a3516)" d="M 39.780226 30.219375  L 49.010301 30.219375  L 49.010301 30.219375  L 39.780226 30.219375  z " style="fill:#a1dab4;stroke:#444443;stroke-linejoin:miter;stroke-width:0.5;" />
   </g>
   <g id="patch_26">
    <path clip-path="url(#pd9d91a3516)" d="M 49.010301 30.219375  L 58.240376 30.219375  L 58.240376 30.219375  L 49.010301 30.219375  z " style="fill:#a1dab4;stroke:#444443;stroke-linejoin:miter;stroke-width:0.5;" />
   </g>
   <g id="patch_27">
    <path clip-path="url(#pd9d91a3516)" d="M 58.240376 30.219375  L 67.470451 30.219375  L 67.470451 30.219375  L 58.240376 30.219375  z " style="fill:#a1dab4;stroke:#444443;stroke-linejoin:miter;stroke-width:0.5;" />
   </g>
   <g id="patch_28">
    <path clip-path="url(#pd9d91a3516)" d="M 67.470451 30.219375  L 76.700526 30.219375  L 76.700526 30.219375  L 67.470451 30.219375  z " style="fill:#a1dab4;stroke:#444443;stroke-linejoin:miter;stroke-width:0.5;" />
   </g>
   <g id="patch_29">
    <path clip-path="url(#pd9d91a3516)" d="M 76.700526 30.219375  L 85.930602 30.219375  L 85.930602 30.219375  L 76.700526 30.219375  z " style="fill:#a1dab4;stroke:#444443;stroke-linejoin:miter;stroke-width:0.5;" />
   </g>
   <g id="patch_30">
    <path clip-path="url(#pd9d91a3516)" d="M 85.930602 30.219375  L 95.160677 30.219375  L 95.160677 30.219375  L 85.930602 30.219375  z " style="fill:#a1dab4;stroke:#444443;stroke-linejoin:miter;stroke-width:0.5;" />
   </g>
   <g id="patch_31">
    <path clip-path="url(#pd9d91a3516)" d="M 95.160677 30.219375  L 104.390752 30.219375  L 104.390752 30.219375  L 95.160677 30.219375  z " style="fill:#a1dab4;stroke:#444443;stroke-linejoin:miter;stroke-width:0.5;" />
   </g>
   <g id="patch_32">
    <path clip-path="url(#pd9d91a3516)" d="M 104.390752 30.219375  L 113.620827 30.219375  L 113.620827 30.219375  L 104.390752 30.219375  z " style="fill:#a1dab4;stroke:#444443;stroke-linejoin:miter;stroke-width:0.5;" />
   </g>
   <g id="patch_33">
    <path clip-path="url(#pd9d91a3516)" d="M 113.620827 30.219375  L 122.850902 30.219375  L 122.850902 30.219375  L 113.620827 30.219375  z " style="fill:#a1dab4;stroke:#444443;stroke-linejoin:miter;stroke-width:0.5;" />
   </g>
   <g id="patch_34">
    <path clip-path="url(#pd9d91a3516)" d="M 122.850902 30.219375  L 132.080977 30.219375  L 132.080977 30.219375  L 122.850902 30.219375  z " style="fill:#a1dab4;stroke:#444443;stroke-linejoin:miter;stroke-width:0.5;" />
   </g>
   <g id="patch_35">
    <path clip-path="url(#pd9d91a3516)" d="M 132.080977 30.219375  L 141.311053 30.219375  L 141.311053 30.219375  L 132.080977 30.219375  z " style="fill:#a1dab4;stroke:#444443;stroke-linejoin:miter;stroke-width:0.5;" />
   </g>
   <g id="patch_36">
    <path clip-path="url(#pd9d91a3516)" d="M 141.311053 30.219375  L 150.541128 30.219375  L 150.541128 30.219375  L 141.311053 30.219375  z " style="fill:#a1dab4;stroke:#444443;stroke-linejoin:miter;stroke-width:0.5;" />
   </g>
   <g id="patch_37">
    <path clip-path="url(#pd9d91a3516)" d="M 150.541128 30.219375  L 159.771203 30.219375  L 159.771203 30.219375  L 150.541128 30.219375  z " style="fill:#a1dab4;stroke:#444443;stroke-linejoin:miter;stroke-width:0.5;" />
   </g>
   <g id="patch_38">
    <path clip-path="url(#pd9d91a3516)" d="M 159.771203 30.219375  L 169.001278 30.219375  L 169.001278 30.219375  L 159.771203 30.219375  z " style="fill:#a1dab4;stroke:#444443;stroke-linejoin:miter;stroke-width:0.5;" />
   </g>
   <g id="patch_39">
    <path clip-path="url(#pd9d91a3516)" d="M 169.001278 30.219375  L 178.231353 30.219375  L 178.231353 30.219375  L 169.001278 30.219375  z " style="fill:#a1dab4;stroke:#444443;stroke-linejoin:miter;stroke-width:0.5;" />
   </g>
   <g id="patch_40">
    <path clip-path="url(#pd9d91a3516)" d="M 178.231353 3.039375  L 187.461429 3.039375  L 187.461429 3.039375  L 178.231353 3.039375  z " style="fill:#a1dab4;stroke:#444443;stroke-linejoin:miter;stroke-width:0.5;" />
   </g>
   <g id="patch_41">
    <path d="M 99.775714 31.034775  L 96.461194 38.373375  L 103.090234 38.373375  z " style="fill:#444443;" />
   </g>
   <g id="matplotlib.axis_1">
    <g id="xtick_1">
     <g id="line2d_1">
      <defs>
       <path d="M 0 0  L 0 3.5  " id="mb3bd60ea37" style="stroke:#000000;stroke-width:0.3;" />
      </defs>
      <g>
       <use style="stroke:#000000;stroke-width:0.3;" x="12.09" y="30.219375" xlink:href="#mb3bd60ea37" />
      </g>
     </g>
     <g id="text_1">
      
      <defs>
       <path d="M 31.78125 66.40625  Q 24.171875 66.40625 20.328125 58.90625  Q 16.5 51.421875 16.5 36.375  Q 16.5 21.390625 20.328125 13.890625  Q 24.171875 6.390625 31.78125 6.390625  Q 39.453125 6.390625 43.28125 13.890625  Q 47.125 21.390625 47.125 36.375  Q 47.125 51.421875 43.28125 58.90625  Q 39.453125 66.40625 31.78125 66.40625  z M 31.78125 74.21875  Q 44.046875 74.21875 50.515625 64.515625  Q 56.984375 54.828125 56.984375 36.375  Q 56.984375 17.96875 50.515625 8.265625  Q 44.046875 -1.421875 31.78125 -1.421875  Q 19.53125 -1.421875 13.0625 8.265625  Q 6.59375 17.96875 6.59375 36.375  Q 6.59375 54.828125 13.0625 64.515625  Q 19.53125 74.21875 31.78125 74.21875  z " id="DejaVuSans-48" />
      </defs>
      <g style="fill:#444443;" transform="translate(9.545 43.298125)scale(0.08 -0.08)">
       <use xlink:href="#DejaVuSans-48" />
      </g>
     </g>
    </g>
    <g id="xtick_2">
     <g id="line2d_2">
      <g>
       <use style="stroke:#000000;stroke-width:0.3;" x="187.461429" y="30.219375" xlink:href="#mb3bd60ea37" />
      </g>
     </g>
     <g id="text_2">
      
      <defs>
       <path d="M 12.40625 8.296875  L 28.515625 8.296875  L 28.515625 63.921875  L 10.984375 60.40625  L 10.984375 69.390625  L 28.421875 72.90625  L 38.28125 72.90625  L 38.28125 8.296875  L 54.390625 8.296875  L 54.390625 0  L 12.40625 0  z " id="DejaVuSans-49" />
      </defs>
      <g style="fill:#444443;" transform="translate(184.916429 43.298125)scale(0.08 -0.08)">
       <use xlink:href="#DejaVuSans-49" />
      </g>
     </g>
    </g>
    <g id="text_3">
     
     <defs>
      <path d="M 9.8125 72.90625  L 23.09375 72.90625  L 55.421875 11.921875  L 55.421875 72.90625  L 64.984375 72.90625  L 64.984375 0  L 51.703125 0  L 19.390625 60.984375  L 19.390625 0  L 9.8125 0  z " id="DejaVuSans-78" />
      <path d="M 30.609375 48.390625  Q 23.390625 48.390625 19.1875 42.75  Q 14.984375 37.109375 14.984375 27.296875  Q 14.984375 17.484375 19.15625 11.84375  Q 23.34375 6.203125 30.609375 6.203125  Q 37.796875 6.203125 41.984375 11.859375  Q 46.1875 17.53125 46.1875 27.296875  Q 46.1875 37.015625 41.984375 42.703125  Q 37.796875 48.390625 30.609375 48.390625  z M 30.609375 56  Q 42.328125 56 49.015625 48.375  Q 55.71875 40.765625 55.71875 27.296875  Q 55.71875 13.875 49.015625 6.21875  Q 42.328125 -1.421875 30.609375 -1.421875  Q 18.84375 -1.421875 12.171875 6.21875  Q 5.515625 13.875 5.515625 27.296875  Q 5.515625 40.765625 12.171875 48.375  Q 18.84375 56 30.609375 56  z " id="DejaVuSans-111" />
      <path d="M 54.890625 33.015625  L 54.890625 0  L 45.90625 0  L 45.90625 32.71875  Q 45.90625 40.484375 42.875 44.328125  Q 39.84375 48.1875 33.796875 48.1875  Q 26.515625 48.1875 22.3125 43.546875  Q 18.109375 38.921875 18.109375 30.90625  L 18.109375 0  L 9.078125 0  L 9.078125 54.6875  L 18.109375 54.6875  L 18.109375 46.1875  Q 21.34375 51.125 25.703125 53.5625  Q 30.078125 56 35.796875 56  Q 45.21875 56 50.046875 50.171875  Q 54.890625 44.34375 54.890625 33.015625  z " id="DejaVuSans-110" />
      <path d="M 56.203125 29.59375  L 56.203125 25.203125  L 14.890625 25.203125  Q 15.484375 15.921875 20.484375 11.0625  Q 25.484375 6.203125 34.421875 6.203125  Q 39.59375 6.203125 44.453125 7.46875  Q 49.3125 8.734375 54.109375 11.28125  L 54.109375 2.78125  Q 49.265625 0.734375 44.1875 -0.34375  Q 39.109375 -1.421875 33.890625 -1.421875  Q 20.796875 -1.421875 13.15625 6.1875  Q 5.515625 13.8125 5.515625 26.8125  Q 5.515625 40.234375 12.765625 48.109375  Q 20.015625 56 32.328125 56  Q 43.359375 56 49.78125 48.890625  Q 56.203125 41.796875 56.203125 29.59375  z M 47.21875 32.234375  Q 47.125 39.59375 43.09375 43.984375  Q 39.0625 48.390625 32.421875 48.390625  Q 24.90625 48.390625 20.390625 44.140625  Q 15.875 39.890625 15.1875 32.171875  z " id="DejaVuSans-101" />
     </defs>
     <g style="fill:#444443;" transform="translate(88.505625 58.08)scale(0.12 -0.12)">
      <use xlink:href="#DejaVuSans-78" />
      <use x="74.804688" xlink:href="#DejaVuSans-111" />
      <use x="135.986328" xlink:href="#DejaVuSans-110" />
      <use x="199.365234" xlink:href="#DejaVuSans-101" />
     </g>
    </g>
   </g>
   <g id="matplotlib.axis_2">
    <g id="ytick_1">
     <g id="line2d_3">
      <defs>
       <path d="M 0 0  L -3.5 0  " id="maa5f05ba9d" style="stroke:#000000;stroke-width:0.3;" />
      </defs>
      <g>
       <use style="stroke:#000000;stroke-width:0.3;" x="12.09" y="30.219375" xlink:href="#maa5f05ba9d" />
      </g>
     </g>
     <g id="text_4">
      
      <g style="fill:#444443;" transform="translate(0 33.25875)scale(0.08 -0.08)">
       <use xlink:href="#DejaVuSans-48" />
      </g>
     </g>
    </g>
    <g id="ytick_2">
     <g id="line2d_4">
      <g>
       <use style="stroke:#000000;stroke-width:0.3;" x="12.09" y="3.039375" xlink:href="#maa5f05ba9d" />
      </g>
     </g>
     <g id="text_5">
      
      <g style="fill:#444443;" transform="translate(0 6.07875)scale(0.08 -0.08)">
       <use xlink:href="#DejaVuSans-49" />
      </g>
     </g>
    </g>
   </g>
   <g id="patch_42">
    <path d="M 12.09 30.219375  L 12.09 3.039375  " style="fill:none;stroke:#000000;stroke-linecap:square;stroke-linejoin:miter;stroke-width:0.3;" />
   </g>
   <g id="patch_43">
    <path d="M 12.09 30.219375  L 196.23 30.219375  " style="fill:none;stroke:#000000;stroke-linecap:square;stroke-linejoin:miter;stroke-width:0.3;" />
   </g>
   <g id="text_6">
    
    <defs>
     <path d="M 10.6875 12.40625  L 21 12.40625  L 21 0  L 10.6875 0  z " id="DejaVuSans-46" />
     <path d="M 10.796875 72.90625  L 49.515625 72.90625  L 49.515625 64.59375  L 19.828125 64.59375  L 19.828125 46.734375  Q 21.96875 47.46875 24.109375 47.828125  Q 26.265625 48.1875 28.421875 48.1875  Q 40.625 48.1875 47.75 41.5  Q 54.890625 34.8125 54.890625 23.390625  Q 54.890625 11.625 47.5625 5.09375  Q 40.234375 -1.421875 26.90625 -1.421875  Q 22.3125 -1.421875 17.546875 -0.640625  Q 12.796875 0.140625 7.71875 1.703125  L 7.71875 11.625  Q 12.109375 9.234375 16.796875 8.0625  Q 21.484375 6.890625 26.703125 6.890625  Q 35.15625 6.890625 40.078125 11.328125  Q 45.015625 15.765625 45.015625 23.390625  Q 45.015625 31 40.078125 35.4375  Q 35.15625 39.890625 26.703125 39.890625  Q 22.75 39.890625 18.8125 39.015625  Q 14.890625 38.140625 10.796875 36.28125  z " id="DejaVuSans-53" />
    </defs>
    <g style="fill:#444443;" transform="translate(90.869464 46.527375)scale(0.08 -0.08)">
     <use xlink:href="#DejaVuSans-48" />
     <use x="63.623047" xlink:href="#DejaVuSans-46" />
     <use x="95.410156" xlink:href="#DejaVuSans-53" />
     <use x="159.033203" xlink:href="#DejaVuSans-48" />
    </g>
   </g>
  </g>
 </g>
 <defs>
  <clipPath id="pd9d91a3516">
   <rect height="27.18" width="184.14" x="12.09" y="3.039375" />
  </clipPath>
 </defs>
</svg></g>


<g class="node" id="node4">
<title>leaf2</title>
<polygon fill="none" points="60,-30 29,-30 29,0 60,0 60,-30" stroke="#444443" stroke-width="0" />
<svg height="22px" preserveAspectRatio="xMinYMin meet" version="1.1" viewBox="0 0 30.927656 29.467064" width="23px" x="33.5" y="-26">
 <defs>
  <style type="text/css">
*{stroke-linecap:butt;stroke-linejoin:round;}
  </style>
 </defs>
 <g id="figure_1">
  <g id="patch_1">
   <path d="M 0 29.467064  L 30.927656 29.467064  L 30.927656 0  L 0 0  z " style="fill:#ffffff;" />
  </g>
  <g id="axes_1">
   <g id="patch_2">
    <path d="M 20.597828 5.134  C 20.597828 4.459809 20.465027 3.792174 20.207026 3.169303  C 19.949024 2.546432 19.570839 1.980439 19.094114 1.503714  C 18.61739 1.026989 18.051396 0.648804 17.428525 0.390802  C 16.805654 0.132801 16.138019 -0 15.463828 -0  C 14.789637 -0 14.122002 0.132801 13.499131 0.390802  C 12.87626 0.648804 12.310267 1.026989 11.833542 1.503714  C 11.356817 1.980439 10.978632 2.546432 10.720631 3.169303  C 10.462629 3.792174 10.329828 4.459809 10.329828 5.134  C 10.329828 5.808191 10.462629 6.475826 10.720631 7.098697  C 10.978632 7.721568 11.356817 8.287561 11.833542 8.764286  C 12.310267 9.241011 12.87626 9.619196 13.499131 9.877198  C 14.122002 10.135199 14.789637 10.268 15.463828 10.268  C 16.138019 10.268 16.805654 10.135199 17.428525 9.877198  C 18.051396 9.619196 18.61739 9.241011 19.094114 8.764286  C 19.570839 8.287561 19.949024 7.721568 20.207026 7.098697  C 20.465027 6.475826 20.597828 5.808191 20.597828 5.134  M 15.463828 5.134  M 20.597828 5.134  z " style="fill:#fefebb;stroke:#444443;stroke-linejoin:miter;stroke-width:0.5;" />
   </g>
   <g id="text_1">
    
    <defs>
     <path d="M 54.890625 33.015625  L 54.890625 0  L 45.90625 0  L 45.90625 32.71875  Q 45.90625 40.484375 42.875 44.328125  Q 39.84375 48.1875 33.796875 48.1875  Q 26.515625 48.1875 22.3125 43.546875  Q 18.109375 38.921875 18.109375 30.90625  L 18.109375 0  L 9.078125 0  L 9.078125 54.6875  L 18.109375 54.6875  L 18.109375 46.1875  Q 21.34375 51.125 25.703125 53.5625  Q 30.078125 56 35.796875 56  Q 45.21875 56 50.046875 50.171875  Q 54.890625 44.34375 54.890625 33.015625  z " id="DejaVuSans-110" />
     <path d="M 10.59375 45.40625  L 73.1875 45.40625  L 73.1875 37.203125  L 10.59375 37.203125  z M 10.59375 25.484375  L 73.1875 25.484375  L 73.1875 17.1875  L 10.59375 17.1875  z " id="DejaVuSans-61" />
     <path d="M 12.40625 8.296875  L 28.515625 8.296875  L 28.515625 63.921875  L 10.984375 60.40625  L 10.984375 69.390625  L 28.421875 72.90625  L 38.28125 72.90625  L 38.28125 8.296875  L 54.390625 8.296875  L 54.390625 0  L 12.40625 0  z " id="DejaVuSans-49" />
    </defs>
    <g style="fill:#444443;" transform="translate(5.977969 17.517314)scale(0.09 -0.09)">
     <use xlink:href="#DejaVuSans-110" />
     <use x="63.378906" xlink:href="#DejaVuSans-61" />
     <use x="147.167969" xlink:href="#DejaVuSans-49" />
    </g>
    
    <defs>
     <path d="M 48.78125 52.59375  L 48.78125 44.1875  Q 44.96875 46.296875 41.140625 47.34375  Q 37.3125 48.390625 33.40625 48.390625  Q 24.65625 48.390625 19.8125 42.84375  Q 14.984375 37.3125 14.984375 27.296875  Q 14.984375 17.28125 19.8125 11.734375  Q 24.65625 6.203125 33.40625 6.203125  Q 37.3125 6.203125 41.140625 7.25  Q 44.96875 8.296875 48.78125 10.40625  L 48.78125 2.09375  Q 45.015625 0.34375 40.984375 -0.53125  Q 36.96875 -1.421875 32.421875 -1.421875  Q 20.0625 -1.421875 12.78125 6.34375  Q 5.515625 14.109375 5.515625 27.296875  Q 5.515625 40.671875 12.859375 48.328125  Q 20.21875 56 33.015625 56  Q 37.15625 56 41.109375 55.140625  Q 45.0625 54.296875 48.78125 52.59375  z " id="DejaVuSans-99" />
     <path d="M 9.421875 75.984375  L 18.40625 75.984375  L 18.40625 0  L 9.421875 0  z " id="DejaVuSans-108" />
     <path d="M 34.28125 27.484375  Q 23.390625 27.484375 19.1875 25  Q 14.984375 22.515625 14.984375 16.5  Q 14.984375 11.71875 18.140625 8.90625  Q 21.296875 6.109375 26.703125 6.109375  Q 34.1875 6.109375 38.703125 11.40625  Q 43.21875 16.703125 43.21875 25.484375  L 43.21875 27.484375  z M 52.203125 31.203125  L 52.203125 0  L 43.21875 0  L 43.21875 8.296875  Q 40.140625 3.328125 35.546875 0.953125  Q 30.953125 -1.421875 24.3125 -1.421875  Q 15.921875 -1.421875 10.953125 3.296875  Q 6 8.015625 6 15.921875  Q 6 25.140625 12.171875 29.828125  Q 18.359375 34.515625 30.609375 34.515625  L 43.21875 34.515625  L 43.21875 35.40625  Q 43.21875 41.609375 39.140625 45  Q 35.0625 48.390625 27.6875 48.390625  Q 23 48.390625 18.546875 47.265625  Q 14.109375 46.140625 10.015625 43.890625  L 10.015625 52.203125  Q 14.9375 54.109375 19.578125 55.046875  Q 24.21875 56 28.609375 56  Q 40.484375 56 46.34375 49.84375  Q 52.203125 43.703125 52.203125 31.203125  z " id="DejaVuSans-97" />
     <path d="M 44.28125 53.078125  L 44.28125 44.578125  Q 40.484375 46.53125 36.375 47.5  Q 32.28125 48.484375 27.875 48.484375  Q 21.1875 48.484375 17.84375 46.4375  Q 14.5 44.390625 14.5 40.28125  Q 14.5 37.15625 16.890625 35.375  Q 19.28125 33.59375 26.515625 31.984375  L 29.59375 31.296875  Q 39.15625 29.25 43.1875 25.515625  Q 47.21875 21.78125 47.21875 15.09375  Q 47.21875 7.46875 41.1875 3.015625  Q 35.15625 -1.421875 24.609375 -1.421875  Q 20.21875 -1.421875 15.453125 -0.5625  Q 10.6875 0.296875 5.421875 2  L 5.421875 11.28125  Q 10.40625 8.6875 15.234375 7.390625  Q 20.0625 6.109375 24.8125 6.109375  Q 31.15625 6.109375 34.5625 8.28125  Q 37.984375 10.453125 37.984375 14.40625  Q 37.984375 18.0625 35.515625 20.015625  Q 33.0625 21.96875 24.703125 23.78125  L 21.578125 24.515625  Q 13.234375 26.265625 9.515625 29.90625  Q 5.8125 33.546875 5.8125 39.890625  Q 5.8125 47.609375 11.28125 51.796875  Q 16.75 56 26.8125 56  Q 31.78125 56 36.171875 55.265625  Q 40.578125 54.546875 44.28125 53.078125  z " id="DejaVuSans-115" />
     <path id="DejaVuSans-32" />
     <path d="M 31.78125 66.40625  Q 24.171875 66.40625 20.328125 58.90625  Q 16.5 51.421875 16.5 36.375  Q 16.5 21.390625 20.328125 13.890625  Q 24.171875 6.390625 31.78125 6.390625  Q 39.453125 6.390625 43.28125 13.890625  Q 47.125 21.390625 47.125 36.375  Q 47.125 51.421875 43.28125 58.90625  Q 39.453125 66.40625 31.78125 66.40625  z M 31.78125 74.21875  Q 44.046875 74.21875 50.515625 64.515625  Q 56.984375 54.828125 56.984375 36.375  Q 56.984375 17.96875 50.515625 8.265625  Q 44.046875 -1.421875 31.78125 -1.421875  Q 19.53125 -1.421875 13.0625 8.265625  Q 6.59375 17.96875 6.59375 36.375  Q 6.59375 54.828125 13.0625 64.515625  Q 19.53125 74.21875 31.78125 74.21875  z " id="DejaVuSans-48" />
    </defs>
    <g style="fill:#444443;" transform="translate(0 27.595345)scale(0.09 -0.09)">
     <use xlink:href="#DejaVuSans-99" />
     <use x="54.980469" xlink:href="#DejaVuSans-108" />
     <use x="82.763672" xlink:href="#DejaVuSans-97" />
     <use x="144.042969" xlink:href="#DejaVuSans-115" />
     <use x="196.142578" xlink:href="#DejaVuSans-115" />
     <use x="248.242188" xlink:href="#DejaVuSans-32" />
     <use x="280.029297" xlink:href="#DejaVuSans-48" />
    </g>
   </g>
  </g>
 </g>
</svg></g>

<g class="edge" id="edge1">
<title>node1-&gt;leaf2</title>
<path d="M62.5449,-46.9886C59.9868,-42.4539 57.3789,-37.8307 54.9697,-33.56" fill="none" stroke="#444443" stroke-width=".3" />
<polygon fill="#444443" points="56.183,-32.8613 52.9983,-30.0652 53.7443,-34.237 56.183,-32.8613" stroke="#444443" stroke-width=".3" />
</g>

<g class="node" id="node5">
<title>leaf3</title>
<polygon fill="none" points="105,-30 74,-30 74,0 105,0 105,-30" stroke="#444443" stroke-width="0" />
<svg height="22px" preserveAspectRatio="xMinYMin meet" version="1.1" viewBox="0 0 30.927656 29.467064" width="23px" x="78.5" y="-26">
 <defs>
  <style type="text/css">
*{stroke-linecap:butt;stroke-linejoin:round;}
  </style>
 </defs>
 <g id="figure_1">
  <g id="patch_1">
   <path d="M 0 29.467064  L 30.927656 29.467064  L 30.927656 0  L 0 0  z " style="fill:#ffffff;" />
  </g>
  <g id="axes_1">
   <g id="patch_2">
    <path d="M 20.597828 5.134  C 20.597828 4.459809 20.465027 3.792174 20.207026 3.169303  C 19.949024 2.546432 19.570839 1.980439 19.094114 1.503714  C 18.61739 1.026989 18.051396 0.648804 17.428525 0.390802  C 16.805654 0.132801 16.138019 -0 15.463828 -0  C 14.789637 -0 14.122002 0.132801 13.499131 0.390802  C 12.87626 0.648804 12.310267 1.026989 11.833542 1.503714  C 11.356817 1.980439 10.978632 2.546432 10.720631 3.169303  C 10.462629 3.792174 10.329828 4.459809 10.329828 5.134  C 10.329828 5.808191 10.462629 6.475826 10.720631 7.098697  C 10.978632 7.721568 11.356817 8.287561 11.833542 8.764286  C 12.310267 9.241011 12.87626 9.619196 13.499131 9.877198  C 14.122002 10.135199 14.789637 10.268 15.463828 10.268  C 16.138019 10.268 16.805654 10.135199 17.428525 9.877198  C 18.051396 9.619196 18.61739 9.241011 19.094114 8.764286  C 19.570839 8.287561 19.949024 7.721568 20.207026 7.098697  C 20.465027 6.475826 20.597828 5.808191 20.597828 5.134  M 15.463828 5.134  M 20.597828 5.134  z " style="fill:#a1dab4;stroke:#444443;stroke-linejoin:miter;stroke-width:0.5;" />
   </g>
   <g id="text_1">
    
    <defs>
     <path d="M 54.890625 33.015625  L 54.890625 0  L 45.90625 0  L 45.90625 32.71875  Q 45.90625 40.484375 42.875 44.328125  Q 39.84375 48.1875 33.796875 48.1875  Q 26.515625 48.1875 22.3125 43.546875  Q 18.109375 38.921875 18.109375 30.90625  L 18.109375 0  L 9.078125 0  L 9.078125 54.6875  L 18.109375 54.6875  L 18.109375 46.1875  Q 21.34375 51.125 25.703125 53.5625  Q 30.078125 56 35.796875 56  Q 45.21875 56 50.046875 50.171875  Q 54.890625 44.34375 54.890625 33.015625  z " id="DejaVuSans-110" />
     <path d="M 10.59375 45.40625  L 73.1875 45.40625  L 73.1875 37.203125  L 10.59375 37.203125  z M 10.59375 25.484375  L 73.1875 25.484375  L 73.1875 17.1875  L 10.59375 17.1875  z " id="DejaVuSans-61" />
     <path d="M 12.40625 8.296875  L 28.515625 8.296875  L 28.515625 63.921875  L 10.984375 60.40625  L 10.984375 69.390625  L 28.421875 72.90625  L 38.28125 72.90625  L 38.28125 8.296875  L 54.390625 8.296875  L 54.390625 0  L 12.40625 0  z " id="DejaVuSans-49" />
    </defs>
    <g style="fill:#444443;" transform="translate(5.977969 17.517314)scale(0.09 -0.09)">
     <use xlink:href="#DejaVuSans-110" />
     <use x="63.378906" xlink:href="#DejaVuSans-61" />
     <use x="147.167969" xlink:href="#DejaVuSans-49" />
    </g>
    
    <defs>
     <path d="M 48.78125 52.59375  L 48.78125 44.1875  Q 44.96875 46.296875 41.140625 47.34375  Q 37.3125 48.390625 33.40625 48.390625  Q 24.65625 48.390625 19.8125 42.84375  Q 14.984375 37.3125 14.984375 27.296875  Q 14.984375 17.28125 19.8125 11.734375  Q 24.65625 6.203125 33.40625 6.203125  Q 37.3125 6.203125 41.140625 7.25  Q 44.96875 8.296875 48.78125 10.40625  L 48.78125 2.09375  Q 45.015625 0.34375 40.984375 -0.53125  Q 36.96875 -1.421875 32.421875 -1.421875  Q 20.0625 -1.421875 12.78125 6.34375  Q 5.515625 14.109375 5.515625 27.296875  Q 5.515625 40.671875 12.859375 48.328125  Q 20.21875 56 33.015625 56  Q 37.15625 56 41.109375 55.140625  Q 45.0625 54.296875 48.78125 52.59375  z " id="DejaVuSans-99" />
     <path d="M 9.421875 75.984375  L 18.40625 75.984375  L 18.40625 0  L 9.421875 0  z " id="DejaVuSans-108" />
     <path d="M 34.28125 27.484375  Q 23.390625 27.484375 19.1875 25  Q 14.984375 22.515625 14.984375 16.5  Q 14.984375 11.71875 18.140625 8.90625  Q 21.296875 6.109375 26.703125 6.109375  Q 34.1875 6.109375 38.703125 11.40625  Q 43.21875 16.703125 43.21875 25.484375  L 43.21875 27.484375  z M 52.203125 31.203125  L 52.203125 0  L 43.21875 0  L 43.21875 8.296875  Q 40.140625 3.328125 35.546875 0.953125  Q 30.953125 -1.421875 24.3125 -1.421875  Q 15.921875 -1.421875 10.953125 3.296875  Q 6 8.015625 6 15.921875  Q 6 25.140625 12.171875 29.828125  Q 18.359375 34.515625 30.609375 34.515625  L 43.21875 34.515625  L 43.21875 35.40625  Q 43.21875 41.609375 39.140625 45  Q 35.0625 48.390625 27.6875 48.390625  Q 23 48.390625 18.546875 47.265625  Q 14.109375 46.140625 10.015625 43.890625  L 10.015625 52.203125  Q 14.9375 54.109375 19.578125 55.046875  Q 24.21875 56 28.609375 56  Q 40.484375 56 46.34375 49.84375  Q 52.203125 43.703125 52.203125 31.203125  z " id="DejaVuSans-97" />
     <path d="M 44.28125 53.078125  L 44.28125 44.578125  Q 40.484375 46.53125 36.375 47.5  Q 32.28125 48.484375 27.875 48.484375  Q 21.1875 48.484375 17.84375 46.4375  Q 14.5 44.390625 14.5 40.28125  Q 14.5 37.15625 16.890625 35.375  Q 19.28125 33.59375 26.515625 31.984375  L 29.59375 31.296875  Q 39.15625 29.25 43.1875 25.515625  Q 47.21875 21.78125 47.21875 15.09375  Q 47.21875 7.46875 41.1875 3.015625  Q 35.15625 -1.421875 24.609375 -1.421875  Q 20.21875 -1.421875 15.453125 -0.5625  Q 10.6875 0.296875 5.421875 2  L 5.421875 11.28125  Q 10.40625 8.6875 15.234375 7.390625  Q 20.0625 6.109375 24.8125 6.109375  Q 31.15625 6.109375 34.5625 8.28125  Q 37.984375 10.453125 37.984375 14.40625  Q 37.984375 18.0625 35.515625 20.015625  Q 33.0625 21.96875 24.703125 23.78125  L 21.578125 24.515625  Q 13.234375 26.265625 9.515625 29.90625  Q 5.8125 33.546875 5.8125 39.890625  Q 5.8125 47.609375 11.28125 51.796875  Q 16.75 56 26.8125 56  Q 31.78125 56 36.171875 55.265625  Q 40.578125 54.546875 44.28125 53.078125  z " id="DejaVuSans-115" />
     <path id="DejaVuSans-32" />
    </defs>
    <g style="fill:#444443;" transform="translate(0 27.595345)scale(0.09 -0.09)">
     <use xlink:href="#DejaVuSans-99" />
     <use x="54.980469" xlink:href="#DejaVuSans-108" />
     <use x="82.763672" xlink:href="#DejaVuSans-97" />
     <use x="144.042969" xlink:href="#DejaVuSans-115" />
     <use x="196.142578" xlink:href="#DejaVuSans-115" />
     <use x="248.242188" xlink:href="#DejaVuSans-32" />
     <use x="280.029297" xlink:href="#DejaVuSans-49" />
    </g>
   </g>
  </g>
 </g>
</svg></g>

<g class="edge" id="edge2">
<title>node1-&gt;leaf3</title>
<path d="M82.9382,-46.9886C83.8312,-42.6353 84.7409,-38.2004 85.5874,-34.0741" fill="none" stroke="#444443" stroke-width=".3" />
<polygon fill="#444443" points="86.9773,-34.265 86.4097,-30.0652 84.2344,-33.7023 86.9773,-34.265" stroke="#444443" stroke-width=".3" />
</g>

<g class="node" id="node6">
<title>leaf5</title>
<polygon fill="none" points="239,-30 208,-30 208,0 239,0 239,-30" stroke="#444443" stroke-width="0" />
<svg height="22px" preserveAspectRatio="xMinYMin meet" version="1.1" viewBox="0 0 30.927656 29.467064" width="23px" x="212.5" y="-26">
 <defs>
  <style type="text/css">
*{stroke-linecap:butt;stroke-linejoin:round;}
  </style>
 </defs>
 <g id="figure_1">
  <g id="patch_1">
   <path d="M 0 29.467064  L 30.927656 29.467064  L 30.927656 0  L 0 0  z " style="fill:#ffffff;" />
  </g>
  <g id="axes_1">
   <g id="patch_2">
    <path d="M 20.597828 5.134  C 20.597828 4.459809 20.465027 3.792174 20.207026 3.169303  C 19.949024 2.546432 19.570839 1.980439 19.094114 1.503714  C 18.61739 1.026989 18.051396 0.648804 17.428525 0.390802  C 16.805654 0.132801 16.138019 -0 15.463828 -0  C 14.789637 -0 14.122002 0.132801 13.499131 0.390802  C 12.87626 0.648804 12.310267 1.026989 11.833542 1.503714  C 11.356817 1.980439 10.978632 2.546432 10.720631 3.169303  C 10.462629 3.792174 10.329828 4.459809 10.329828 5.134  C 10.329828 5.808191 10.462629 6.475826 10.720631 7.098697  C 10.978632 7.721568 11.356817 8.287561 11.833542 8.764286  C 12.310267 9.241011 12.87626 9.619196 13.499131 9.877198  C 14.122002 10.135199 14.789637 10.268 15.463828 10.268  C 16.138019 10.268 16.805654 10.135199 17.428525 9.877198  C 18.051396 9.619196 18.61739 9.241011 19.094114 8.764286  C 19.570839 8.287561 19.949024 7.721568 20.207026 7.098697  C 20.465027 6.475826 20.597828 5.808191 20.597828 5.134  M 15.463828 5.134  M 20.597828 5.134  z " style="fill:#a1dab4;stroke:#444443;stroke-linejoin:miter;stroke-width:0.5;" />
   </g>
   <g id="text_1">
    
    <defs>
     <path d="M 54.890625 33.015625  L 54.890625 0  L 45.90625 0  L 45.90625 32.71875  Q 45.90625 40.484375 42.875 44.328125  Q 39.84375 48.1875 33.796875 48.1875  Q 26.515625 48.1875 22.3125 43.546875  Q 18.109375 38.921875 18.109375 30.90625  L 18.109375 0  L 9.078125 0  L 9.078125 54.6875  L 18.109375 54.6875  L 18.109375 46.1875  Q 21.34375 51.125 25.703125 53.5625  Q 30.078125 56 35.796875 56  Q 45.21875 56 50.046875 50.171875  Q 54.890625 44.34375 54.890625 33.015625  z " id="DejaVuSans-110" />
     <path d="M 10.59375 45.40625  L 73.1875 45.40625  L 73.1875 37.203125  L 10.59375 37.203125  z M 10.59375 25.484375  L 73.1875 25.484375  L 73.1875 17.1875  L 10.59375 17.1875  z " id="DejaVuSans-61" />
     <path d="M 12.40625 8.296875  L 28.515625 8.296875  L 28.515625 63.921875  L 10.984375 60.40625  L 10.984375 69.390625  L 28.421875 72.90625  L 38.28125 72.90625  L 38.28125 8.296875  L 54.390625 8.296875  L 54.390625 0  L 12.40625 0  z " id="DejaVuSans-49" />
    </defs>
    <g style="fill:#444443;" transform="translate(5.977969 17.517314)scale(0.09 -0.09)">
     <use xlink:href="#DejaVuSans-110" />
     <use x="63.378906" xlink:href="#DejaVuSans-61" />
     <use x="147.167969" xlink:href="#DejaVuSans-49" />
    </g>
    
    <defs>
     <path d="M 48.78125 52.59375  L 48.78125 44.1875  Q 44.96875 46.296875 41.140625 47.34375  Q 37.3125 48.390625 33.40625 48.390625  Q 24.65625 48.390625 19.8125 42.84375  Q 14.984375 37.3125 14.984375 27.296875  Q 14.984375 17.28125 19.8125 11.734375  Q 24.65625 6.203125 33.40625 6.203125  Q 37.3125 6.203125 41.140625 7.25  Q 44.96875 8.296875 48.78125 10.40625  L 48.78125 2.09375  Q 45.015625 0.34375 40.984375 -0.53125  Q 36.96875 -1.421875 32.421875 -1.421875  Q 20.0625 -1.421875 12.78125 6.34375  Q 5.515625 14.109375 5.515625 27.296875  Q 5.515625 40.671875 12.859375 48.328125  Q 20.21875 56 33.015625 56  Q 37.15625 56 41.109375 55.140625  Q 45.0625 54.296875 48.78125 52.59375  z " id="DejaVuSans-99" />
     <path d="M 9.421875 75.984375  L 18.40625 75.984375  L 18.40625 0  L 9.421875 0  z " id="DejaVuSans-108" />
     <path d="M 34.28125 27.484375  Q 23.390625 27.484375 19.1875 25  Q 14.984375 22.515625 14.984375 16.5  Q 14.984375 11.71875 18.140625 8.90625  Q 21.296875 6.109375 26.703125 6.109375  Q 34.1875 6.109375 38.703125 11.40625  Q 43.21875 16.703125 43.21875 25.484375  L 43.21875 27.484375  z M 52.203125 31.203125  L 52.203125 0  L 43.21875 0  L 43.21875 8.296875  Q 40.140625 3.328125 35.546875 0.953125  Q 30.953125 -1.421875 24.3125 -1.421875  Q 15.921875 -1.421875 10.953125 3.296875  Q 6 8.015625 6 15.921875  Q 6 25.140625 12.171875 29.828125  Q 18.359375 34.515625 30.609375 34.515625  L 43.21875 34.515625  L 43.21875 35.40625  Q 43.21875 41.609375 39.140625 45  Q 35.0625 48.390625 27.6875 48.390625  Q 23 48.390625 18.546875 47.265625  Q 14.109375 46.140625 10.015625 43.890625  L 10.015625 52.203125  Q 14.9375 54.109375 19.578125 55.046875  Q 24.21875 56 28.609375 56  Q 40.484375 56 46.34375 49.84375  Q 52.203125 43.703125 52.203125 31.203125  z " id="DejaVuSans-97" />
     <path d="M 44.28125 53.078125  L 44.28125 44.578125  Q 40.484375 46.53125 36.375 47.5  Q 32.28125 48.484375 27.875 48.484375  Q 21.1875 48.484375 17.84375 46.4375  Q 14.5 44.390625 14.5 40.28125  Q 14.5 37.15625 16.890625 35.375  Q 19.28125 33.59375 26.515625 31.984375  L 29.59375 31.296875  Q 39.15625 29.25 43.1875 25.515625  Q 47.21875 21.78125 47.21875 15.09375  Q 47.21875 7.46875 41.1875 3.015625  Q 35.15625 -1.421875 24.609375 -1.421875  Q 20.21875 -1.421875 15.453125 -0.5625  Q 10.6875 0.296875 5.421875 2  L 5.421875 11.28125  Q 10.40625 8.6875 15.234375 7.390625  Q 20.0625 6.109375 24.8125 6.109375  Q 31.15625 6.109375 34.5625 8.28125  Q 37.984375 10.453125 37.984375 14.40625  Q 37.984375 18.0625 35.515625 20.015625  Q 33.0625 21.96875 24.703125 23.78125  L 21.578125 24.515625  Q 13.234375 26.265625 9.515625 29.90625  Q 5.8125 33.546875 5.8125 39.890625  Q 5.8125 47.609375 11.28125 51.796875  Q 16.75 56 26.8125 56  Q 31.78125 56 36.171875 55.265625  Q 40.578125 54.546875 44.28125 53.078125  z " id="DejaVuSans-115" />
     <path id="DejaVuSans-32" />
    </defs>
    <g style="fill:#444443;" transform="translate(0 27.595345)scale(0.09 -0.09)">
     <use xlink:href="#DejaVuSans-99" />
     <use x="54.980469" xlink:href="#DejaVuSans-108" />
     <use x="82.763672" xlink:href="#DejaVuSans-97" />
     <use x="144.042969" xlink:href="#DejaVuSans-115" />
     <use x="196.142578" xlink:href="#DejaVuSans-115" />
     <use x="248.242188" xlink:href="#DejaVuSans-32" />
     <use x="280.029297" xlink:href="#DejaVuSans-49" />
    </g>
   </g>
  </g>
 </g>
</svg></g>

<g class="edge" id="edge4">
<title>node4-&gt;leaf5</title>
<path d="M236.0767,-46.9886C234.3295,-42.5446 232.5489,-38.0156 230.898,-33.8167" fill="none" stroke="#444443" stroke-width=".3" />
<polygon fill="#444443" points="232.1896,-33.2755 229.4231,-30.0652 229.5838,-34.3001 232.1896,-33.2755" stroke="#444443" stroke-width=".3" />
</g>

<g class="node" id="node7">
<title>leaf6</title>
<polygon fill="none" points="284,-30 253,-30 253,0 284,0 284,-30" stroke="#444443" stroke-width="0" />
<svg height="22px" preserveAspectRatio="xMinYMin meet" version="1.1" viewBox="0 0 30.927656 29.467064" width="23px" x="257.5" y="-26">
 <defs>
  <style type="text/css">
*{stroke-linecap:butt;stroke-linejoin:round;}
  </style>
 </defs>
 <g id="figure_1">
  <g id="patch_1">
   <path d="M 0 29.467064  L 30.927656 29.467064  L 30.927656 0  L 0 0  z " style="fill:#ffffff;" />
  </g>
  <g id="axes_1">
   <g id="patch_2">
    <path d="M 20.597828 5.134  C 20.597828 4.459809 20.465027 3.792174 20.207026 3.169303  C 19.949024 2.546432 19.570839 1.980439 19.094114 1.503714  C 18.61739 1.026989 18.051396 0.648804 17.428525 0.390802  C 16.805654 0.132801 16.138019 -0 15.463828 -0  C 14.789637 -0 14.122002 0.132801 13.499131 0.390802  C 12.87626 0.648804 12.310267 1.026989 11.833542 1.503714  C 11.356817 1.980439 10.978632 2.546432 10.720631 3.169303  C 10.462629 3.792174 10.329828 4.459809 10.329828 5.134  C 10.329828 5.808191 10.462629 6.475826 10.720631 7.098697  C 10.978632 7.721568 11.356817 8.287561 11.833542 8.764286  C 12.310267 9.241011 12.87626 9.619196 13.499131 9.877198  C 14.122002 10.135199 14.789637 10.268 15.463828 10.268  C 16.138019 10.268 16.805654 10.135199 17.428525 9.877198  C 18.051396 9.619196 18.61739 9.241011 19.094114 8.764286  C 19.570839 8.287561 19.949024 7.721568 20.207026 7.098697  C 20.465027 6.475826 20.597828 5.808191 20.597828 5.134  M 15.463828 5.134  M 20.597828 5.134  z " style="fill:#fefebb;stroke:#444443;stroke-linejoin:miter;stroke-width:0.5;" />
   </g>
   <g id="text_1">
    
    <defs>
     <path d="M 54.890625 33.015625  L 54.890625 0  L 45.90625 0  L 45.90625 32.71875  Q 45.90625 40.484375 42.875 44.328125  Q 39.84375 48.1875 33.796875 48.1875  Q 26.515625 48.1875 22.3125 43.546875  Q 18.109375 38.921875 18.109375 30.90625  L 18.109375 0  L 9.078125 0  L 9.078125 54.6875  L 18.109375 54.6875  L 18.109375 46.1875  Q 21.34375 51.125 25.703125 53.5625  Q 30.078125 56 35.796875 56  Q 45.21875 56 50.046875 50.171875  Q 54.890625 44.34375 54.890625 33.015625  z " id="DejaVuSans-110" />
     <path d="M 10.59375 45.40625  L 73.1875 45.40625  L 73.1875 37.203125  L 10.59375 37.203125  z M 10.59375 25.484375  L 73.1875 25.484375  L 73.1875 17.1875  L 10.59375 17.1875  z " id="DejaVuSans-61" />
     <path d="M 12.40625 8.296875  L 28.515625 8.296875  L 28.515625 63.921875  L 10.984375 60.40625  L 10.984375 69.390625  L 28.421875 72.90625  L 38.28125 72.90625  L 38.28125 8.296875  L 54.390625 8.296875  L 54.390625 0  L 12.40625 0  z " id="DejaVuSans-49" />
    </defs>
    <g style="fill:#444443;" transform="translate(5.977969 17.517314)scale(0.09 -0.09)">
     <use xlink:href="#DejaVuSans-110" />
     <use x="63.378906" xlink:href="#DejaVuSans-61" />
     <use x="147.167969" xlink:href="#DejaVuSans-49" />
    </g>
    
    <defs>
     <path d="M 48.78125 52.59375  L 48.78125 44.1875  Q 44.96875 46.296875 41.140625 47.34375  Q 37.3125 48.390625 33.40625 48.390625  Q 24.65625 48.390625 19.8125 42.84375  Q 14.984375 37.3125 14.984375 27.296875  Q 14.984375 17.28125 19.8125 11.734375  Q 24.65625 6.203125 33.40625 6.203125  Q 37.3125 6.203125 41.140625 7.25  Q 44.96875 8.296875 48.78125 10.40625  L 48.78125 2.09375  Q 45.015625 0.34375 40.984375 -0.53125  Q 36.96875 -1.421875 32.421875 -1.421875  Q 20.0625 -1.421875 12.78125 6.34375  Q 5.515625 14.109375 5.515625 27.296875  Q 5.515625 40.671875 12.859375 48.328125  Q 20.21875 56 33.015625 56  Q 37.15625 56 41.109375 55.140625  Q 45.0625 54.296875 48.78125 52.59375  z " id="DejaVuSans-99" />
     <path d="M 9.421875 75.984375  L 18.40625 75.984375  L 18.40625 0  L 9.421875 0  z " id="DejaVuSans-108" />
     <path d="M 34.28125 27.484375  Q 23.390625 27.484375 19.1875 25  Q 14.984375 22.515625 14.984375 16.5  Q 14.984375 11.71875 18.140625 8.90625  Q 21.296875 6.109375 26.703125 6.109375  Q 34.1875 6.109375 38.703125 11.40625  Q 43.21875 16.703125 43.21875 25.484375  L 43.21875 27.484375  z M 52.203125 31.203125  L 52.203125 0  L 43.21875 0  L 43.21875 8.296875  Q 40.140625 3.328125 35.546875 0.953125  Q 30.953125 -1.421875 24.3125 -1.421875  Q 15.921875 -1.421875 10.953125 3.296875  Q 6 8.015625 6 15.921875  Q 6 25.140625 12.171875 29.828125  Q 18.359375 34.515625 30.609375 34.515625  L 43.21875 34.515625  L 43.21875 35.40625  Q 43.21875 41.609375 39.140625 45  Q 35.0625 48.390625 27.6875 48.390625  Q 23 48.390625 18.546875 47.265625  Q 14.109375 46.140625 10.015625 43.890625  L 10.015625 52.203125  Q 14.9375 54.109375 19.578125 55.046875  Q 24.21875 56 28.609375 56  Q 40.484375 56 46.34375 49.84375  Q 52.203125 43.703125 52.203125 31.203125  z " id="DejaVuSans-97" />
     <path d="M 44.28125 53.078125  L 44.28125 44.578125  Q 40.484375 46.53125 36.375 47.5  Q 32.28125 48.484375 27.875 48.484375  Q 21.1875 48.484375 17.84375 46.4375  Q 14.5 44.390625 14.5 40.28125  Q 14.5 37.15625 16.890625 35.375  Q 19.28125 33.59375 26.515625 31.984375  L 29.59375 31.296875  Q 39.15625 29.25 43.1875 25.515625  Q 47.21875 21.78125 47.21875 15.09375  Q 47.21875 7.46875 41.1875 3.015625  Q 35.15625 -1.421875 24.609375 -1.421875  Q 20.21875 -1.421875 15.453125 -0.5625  Q 10.6875 0.296875 5.421875 2  L 5.421875 11.28125  Q 10.40625 8.6875 15.234375 7.390625  Q 20.0625 6.109375 24.8125 6.109375  Q 31.15625 6.109375 34.5625 8.28125  Q 37.984375 10.453125 37.984375 14.40625  Q 37.984375 18.0625 35.515625 20.015625  Q 33.0625 21.96875 24.703125 23.78125  L 21.578125 24.515625  Q 13.234375 26.265625 9.515625 29.90625  Q 5.8125 33.546875 5.8125 39.890625  Q 5.8125 47.609375 11.28125 51.796875  Q 16.75 56 26.8125 56  Q 31.78125 56 36.171875 55.265625  Q 40.578125 54.546875 44.28125 53.078125  z " id="DejaVuSans-115" />
     <path id="DejaVuSans-32" />
     <path d="M 31.78125 66.40625  Q 24.171875 66.40625 20.328125 58.90625  Q 16.5 51.421875 16.5 36.375  Q 16.5 21.390625 20.328125 13.890625  Q 24.171875 6.390625 31.78125 6.390625  Q 39.453125 6.390625 43.28125 13.890625  Q 47.125 21.390625 47.125 36.375  Q 47.125 51.421875 43.28125 58.90625  Q 39.453125 66.40625 31.78125 66.40625  z M 31.78125 74.21875  Q 44.046875 74.21875 50.515625 64.515625  Q 56.984375 54.828125 56.984375 36.375  Q 56.984375 17.96875 50.515625 8.265625  Q 44.046875 -1.421875 31.78125 -1.421875  Q 19.53125 -1.421875 13.0625 8.265625  Q 6.59375 17.96875 6.59375 36.375  Q 6.59375 54.828125 13.0625 64.515625  Q 19.53125 74.21875 31.78125 74.21875  z " id="DejaVuSans-48" />
    </defs>
    <g style="fill:#444443;" transform="translate(0 27.595345)scale(0.09 -0.09)">
     <use xlink:href="#DejaVuSans-99" />
     <use x="54.980469" xlink:href="#DejaVuSans-108" />
     <use x="82.763672" xlink:href="#DejaVuSans-97" />
     <use x="144.042969" xlink:href="#DejaVuSans-115" />
     <use x="196.142578" xlink:href="#DejaVuSans-115" />
     <use x="248.242188" xlink:href="#DejaVuSans-32" />
     <use x="280.029297" xlink:href="#DejaVuSans-48" />
    </g>
   </g>
  </g>
 </g>
</svg></g>

<g class="edge" id="edge5">
<title>node4-&gt;leaf6</title>
<path d="M256.4701,-46.9886C258.1413,-42.5446 259.8446,-38.0156 261.4237,-33.8167" fill="none" stroke="#444443" stroke-width=".3" />
<polygon fill="#444443" points="262.7368,-34.302 262.8345,-30.0652 260.116,-33.3164 262.7368,-34.302" stroke="#444443" stroke-width=".3" />
</g>

<g class="node" id="node3">
<title>node0</title>
<svg height="84px" preserveAspectRatio="xMinYMin meet" version="1.1" viewBox="0 0 196.23 111.89625" width="147px" x="88.5" y="-219">
 <defs>
  <style type="text/css">
*{stroke-linecap:butt;stroke-linejoin:round;}
  </style>
 </defs>
 <g id="figure_1">
  <g id="patch_1">
   <path d="M 0 111.89625  L 196.23 111.89625  L 196.23 0  L 0 0  z " style="fill:#ffffff;" />
  </g>
  <g id="axes_1">
   <g id="patch_2">
    <path d="M 12.09 81.54  L 196.23 81.54  L 196.23 0  L 12.09 0  z " style="fill:#ffffff;" />
   </g>
   <g id="patch_3">
    <path clip-path="url(#pe174c89115)" d="M 12.09 81.54  L 21.320075 81.54  L 21.320075 42.711429  L 12.09 42.711429  z " style="fill:#fefebb;stroke:#444443;stroke-linejoin:miter;stroke-width:0.5;" />
   </g>
   <g id="patch_4">
    <path clip-path="url(#pe174c89115)" d="M 21.320075 81.54  L 30.55015 81.54  L 30.55015 81.54  L 21.320075 81.54  z " style="fill:#fefebb;stroke:#444443;stroke-linejoin:miter;stroke-width:0.5;" />
   </g>
   <g id="patch_5">
    <path clip-path="url(#pe174c89115)" d="M 30.55015 81.54  L 39.780226 81.54  L 39.780226 81.54  L 30.55015 81.54  z " style="fill:#fefebb;stroke:#444443;stroke-linejoin:miter;stroke-width:0.5;" />
   </g>
   <g id="patch_6">
    <path clip-path="url(#pe174c89115)" d="M 39.780226 81.54  L 49.010301 81.54  L 49.010301 81.54  L 39.780226 81.54  z " style="fill:#fefebb;stroke:#444443;stroke-linejoin:miter;stroke-width:0.5;" />
   </g>
   <g id="patch_7">
    <path clip-path="url(#pe174c89115)" d="M 49.010301 81.54  L 58.240376 81.54  L 58.240376 81.54  L 49.010301 81.54  z " style="fill:#fefebb;stroke:#444443;stroke-linejoin:miter;stroke-width:0.5;" />
   </g>
   <g id="patch_8">
    <path clip-path="url(#pe174c89115)" d="M 58.240376 81.54  L 67.470451 81.54  L 67.470451 81.54  L 58.240376 81.54  z " style="fill:#fefebb;stroke:#444443;stroke-linejoin:miter;stroke-width:0.5;" />
   </g>
   <g id="patch_9">
    <path clip-path="url(#pe174c89115)" d="M 67.470451 81.54  L 76.700526 81.54  L 76.700526 81.54  L 67.470451 81.54  z " style="fill:#fefebb;stroke:#444443;stroke-linejoin:miter;stroke-width:0.5;" />
   </g>
   <g id="patch_10">
    <path clip-path="url(#pe174c89115)" d="M 76.700526 81.54  L 85.930602 81.54  L 85.930602 81.54  L 76.700526 81.54  z " style="fill:#fefebb;stroke:#444443;stroke-linejoin:miter;stroke-width:0.5;" />
   </g>
   <g id="patch_11">
    <path clip-path="url(#pe174c89115)" d="M 85.930602 81.54  L 95.160677 81.54  L 95.160677 81.54  L 85.930602 81.54  z " style="fill:#fefebb;stroke:#444443;stroke-linejoin:miter;stroke-width:0.5;" />
   </g>
   <g id="patch_12">
    <path clip-path="url(#pe174c89115)" d="M 95.160677 81.54  L 104.390752 81.54  L 104.390752 81.54  L 95.160677 81.54  z " style="fill:#fefebb;stroke:#444443;stroke-linejoin:miter;stroke-width:0.5;" />
   </g>
   <g id="patch_13">
    <path clip-path="url(#pe174c89115)" d="M 104.390752 81.54  L 113.620827 81.54  L 113.620827 81.54  L 104.390752 81.54  z " style="fill:#fefebb;stroke:#444443;stroke-linejoin:miter;stroke-width:0.5;" />
   </g>
   <g id="patch_14">
    <path clip-path="url(#pe174c89115)" d="M 113.620827 81.54  L 122.850902 81.54  L 122.850902 81.54  L 113.620827 81.54  z " style="fill:#fefebb;stroke:#444443;stroke-linejoin:miter;stroke-width:0.5;" />
   </g>
   <g id="patch_15">
    <path clip-path="url(#pe174c89115)" d="M 122.850902 81.54  L 132.080977 81.54  L 132.080977 81.54  L 122.850902 81.54  z " style="fill:#fefebb;stroke:#444443;stroke-linejoin:miter;stroke-width:0.5;" />
   </g>
   <g id="patch_16">
    <path clip-path="url(#pe174c89115)" d="M 132.080977 81.54  L 141.311053 81.54  L 141.311053 81.54  L 132.080977 81.54  z " style="fill:#fefebb;stroke:#444443;stroke-linejoin:miter;stroke-width:0.5;" />
   </g>
   <g id="patch_17">
    <path clip-path="url(#pe174c89115)" d="M 141.311053 81.54  L 150.541128 81.54  L 150.541128 81.54  L 141.311053 81.54  z " style="fill:#fefebb;stroke:#444443;stroke-linejoin:miter;stroke-width:0.5;" />
   </g>
   <g id="patch_18">
    <path clip-path="url(#pe174c89115)" d="M 150.541128 81.54  L 159.771203 81.54  L 159.771203 81.54  L 150.541128 81.54  z " style="fill:#fefebb;stroke:#444443;stroke-linejoin:miter;stroke-width:0.5;" />
   </g>
   <g id="patch_19">
    <path clip-path="url(#pe174c89115)" d="M 159.771203 81.54  L 169.001278 81.54  L 169.001278 81.54  L 159.771203 81.54  z " style="fill:#fefebb;stroke:#444443;stroke-linejoin:miter;stroke-width:0.5;" />
   </g>
   <g id="patch_20">
    <path clip-path="url(#pe174c89115)" d="M 169.001278 81.54  L 178.231353 81.54  L 178.231353 81.54  L 169.001278 81.54  z " style="fill:#fefebb;stroke:#444443;stroke-linejoin:miter;stroke-width:0.5;" />
   </g>
   <g id="patch_21">
    <path clip-path="url(#pe174c89115)" d="M 178.231353 81.54  L 187.461429 81.54  L 187.461429 42.711429  L 178.231353 42.711429  z " style="fill:#fefebb;stroke:#444443;stroke-linejoin:miter;stroke-width:0.5;" />
   </g>
   <g id="patch_22">
    <path clip-path="url(#pe174c89115)" d="M 12.09 42.711429  L 21.320075 42.711429  L 21.320075 3.882857  L 12.09 3.882857  z " style="fill:#a1dab4;stroke:#444443;stroke-linejoin:miter;stroke-width:0.5;" />
   </g>
   <g id="patch_23">
    <path clip-path="url(#pe174c89115)" d="M 21.320075 81.54  L 30.55015 81.54  L 30.55015 81.54  L 21.320075 81.54  z " style="fill:#a1dab4;stroke:#444443;stroke-linejoin:miter;stroke-width:0.5;" />
   </g>
   <g id="patch_24">
    <path clip-path="url(#pe174c89115)" d="M 30.55015 81.54  L 39.780226 81.54  L 39.780226 81.54  L 30.55015 81.54  z " style="fill:#a1dab4;stroke:#444443;stroke-linejoin:miter;stroke-width:0.5;" />
   </g>
   <g id="patch_25">
    <path clip-path="url(#pe174c89115)" d="M 39.780226 81.54  L 49.010301 81.54  L 49.010301 81.54  L 39.780226 81.54  z " style="fill:#a1dab4;stroke:#444443;stroke-linejoin:miter;stroke-width:0.5;" />
   </g>
   <g id="patch_26">
    <path clip-path="url(#pe174c89115)" d="M 49.010301 81.54  L 58.240376 81.54  L 58.240376 81.54  L 49.010301 81.54  z " style="fill:#a1dab4;stroke:#444443;stroke-linejoin:miter;stroke-width:0.5;" />
   </g>
   <g id="patch_27">
    <path clip-path="url(#pe174c89115)" d="M 58.240376 81.54  L 67.470451 81.54  L 67.470451 81.54  L 58.240376 81.54  z " style="fill:#a1dab4;stroke:#444443;stroke-linejoin:miter;stroke-width:0.5;" />
   </g>
   <g id="patch_28">
    <path clip-path="url(#pe174c89115)" d="M 67.470451 81.54  L 76.700526 81.54  L 76.700526 81.54  L 67.470451 81.54  z " style="fill:#a1dab4;stroke:#444443;stroke-linejoin:miter;stroke-width:0.5;" />
   </g>
   <g id="patch_29">
    <path clip-path="url(#pe174c89115)" d="M 76.700526 81.54  L 85.930602 81.54  L 85.930602 81.54  L 76.700526 81.54  z " style="fill:#a1dab4;stroke:#444443;stroke-linejoin:miter;stroke-width:0.5;" />
   </g>
   <g id="patch_30">
    <path clip-path="url(#pe174c89115)" d="M 85.930602 81.54  L 95.160677 81.54  L 95.160677 81.54  L 85.930602 81.54  z " style="fill:#a1dab4;stroke:#444443;stroke-linejoin:miter;stroke-width:0.5;" />
   </g>
   <g id="patch_31">
    <path clip-path="url(#pe174c89115)" d="M 95.160677 81.54  L 104.390752 81.54  L 104.390752 81.54  L 95.160677 81.54  z " style="fill:#a1dab4;stroke:#444443;stroke-linejoin:miter;stroke-width:0.5;" />
   </g>
   <g id="patch_32">
    <path clip-path="url(#pe174c89115)" d="M 104.390752 81.54  L 113.620827 81.54  L 113.620827 81.54  L 104.390752 81.54  z " style="fill:#a1dab4;stroke:#444443;stroke-linejoin:miter;stroke-width:0.5;" />
   </g>
   <g id="patch_33">
    <path clip-path="url(#pe174c89115)" d="M 113.620827 81.54  L 122.850902 81.54  L 122.850902 81.54  L 113.620827 81.54  z " style="fill:#a1dab4;stroke:#444443;stroke-linejoin:miter;stroke-width:0.5;" />
   </g>
   <g id="patch_34">
    <path clip-path="url(#pe174c89115)" d="M 122.850902 81.54  L 132.080977 81.54  L 132.080977 81.54  L 122.850902 81.54  z " style="fill:#a1dab4;stroke:#444443;stroke-linejoin:miter;stroke-width:0.5;" />
   </g>
   <g id="patch_35">
    <path clip-path="url(#pe174c89115)" d="M 132.080977 81.54  L 141.311053 81.54  L 141.311053 81.54  L 132.080977 81.54  z " style="fill:#a1dab4;stroke:#444443;stroke-linejoin:miter;stroke-width:0.5;" />
   </g>
   <g id="patch_36">
    <path clip-path="url(#pe174c89115)" d="M 141.311053 81.54  L 150.541128 81.54  L 150.541128 81.54  L 141.311053 81.54  z " style="fill:#a1dab4;stroke:#444443;stroke-linejoin:miter;stroke-width:0.5;" />
   </g>
   <g id="patch_37">
    <path clip-path="url(#pe174c89115)" d="M 150.541128 81.54  L 159.771203 81.54  L 159.771203 81.54  L 150.541128 81.54  z " style="fill:#a1dab4;stroke:#444443;stroke-linejoin:miter;stroke-width:0.5;" />
   </g>
   <g id="patch_38">
    <path clip-path="url(#pe174c89115)" d="M 159.771203 81.54  L 169.001278 81.54  L 169.001278 81.54  L 159.771203 81.54  z " style="fill:#a1dab4;stroke:#444443;stroke-linejoin:miter;stroke-width:0.5;" />
   </g>
   <g id="patch_39">
    <path clip-path="url(#pe174c89115)" d="M 169.001278 81.54  L 178.231353 81.54  L 178.231353 81.54  L 169.001278 81.54  z " style="fill:#a1dab4;stroke:#444443;stroke-linejoin:miter;stroke-width:0.5;" />
   </g>
   <g id="patch_40">
    <path clip-path="url(#pe174c89115)" d="M 178.231353 42.711429  L 187.461429 42.711429  L 187.461429 3.882857  L 178.231353 3.882857  z " style="fill:#a1dab4;stroke:#444443;stroke-linejoin:miter;stroke-width:0.5;" />
   </g>
   <g id="patch_41">
    <path d="M 99.775714 82.3554  L 96.461194 89.694  L 103.090234 89.694  z " style="fill:#444443;" />
   </g>
   <g id="matplotlib.axis_1">
    <g id="xtick_1">
     <g id="line2d_1">
      <defs>
       <path d="M 0 0  L 0 3.5  " id="mf80aa1cb62" style="stroke:#000000;stroke-width:0.3;" />
      </defs>
      <g>
       <use style="stroke:#000000;stroke-width:0.3;" x="12.09" y="81.54" xlink:href="#mf80aa1cb62" />
      </g>
     </g>
     <g id="text_1">
      
      <defs>
       <path d="M 31.78125 66.40625  Q 24.171875 66.40625 20.328125 58.90625  Q 16.5 51.421875 16.5 36.375  Q 16.5 21.390625 20.328125 13.890625  Q 24.171875 6.390625 31.78125 6.390625  Q 39.453125 6.390625 43.28125 13.890625  Q 47.125 21.390625 47.125 36.375  Q 47.125 51.421875 43.28125 58.90625  Q 39.453125 66.40625 31.78125 66.40625  z M 31.78125 74.21875  Q 44.046875 74.21875 50.515625 64.515625  Q 56.984375 54.828125 56.984375 36.375  Q 56.984375 17.96875 50.515625 8.265625  Q 44.046875 -1.421875 31.78125 -1.421875  Q 19.53125 -1.421875 13.0625 8.265625  Q 6.59375 17.96875 6.59375 36.375  Q 6.59375 54.828125 13.0625 64.515625  Q 19.53125 74.21875 31.78125 74.21875  z " id="DejaVuSans-48" />
      </defs>
      <g style="fill:#444443;" transform="translate(9.545 94.61875)scale(0.08 -0.08)">
       <use xlink:href="#DejaVuSans-48" />
      </g>
     </g>
    </g>
    <g id="xtick_2">
     <g id="line2d_2">
      <g>
       <use style="stroke:#000000;stroke-width:0.3;" x="187.461429" y="81.54" xlink:href="#mf80aa1cb62" />
      </g>
     </g>
     <g id="text_2">
      
      <defs>
       <path d="M 12.40625 8.296875  L 28.515625 8.296875  L 28.515625 63.921875  L 10.984375 60.40625  L 10.984375 69.390625  L 28.421875 72.90625  L 38.28125 72.90625  L 38.28125 8.296875  L 54.390625 8.296875  L 54.390625 0  L 12.40625 0  z " id="DejaVuSans-49" />
      </defs>
      <g style="fill:#444443;" transform="translate(184.916429 94.61875)scale(0.08 -0.08)">
       <use xlink:href="#DejaVuSans-49" />
      </g>
     </g>
    </g>
    <g id="text_3">
     
     <defs>
      <path d="M 9.8125 72.90625  L 23.09375 72.90625  L 55.421875 11.921875  L 55.421875 72.90625  L 64.984375 72.90625  L 64.984375 0  L 51.703125 0  L 19.390625 60.984375  L 19.390625 0  L 9.8125 0  z " id="DejaVuSans-78" />
      <path d="M 30.609375 48.390625  Q 23.390625 48.390625 19.1875 42.75  Q 14.984375 37.109375 14.984375 27.296875  Q 14.984375 17.484375 19.15625 11.84375  Q 23.34375 6.203125 30.609375 6.203125  Q 37.796875 6.203125 41.984375 11.859375  Q 46.1875 17.53125 46.1875 27.296875  Q 46.1875 37.015625 41.984375 42.703125  Q 37.796875 48.390625 30.609375 48.390625  z M 30.609375 56  Q 42.328125 56 49.015625 48.375  Q 55.71875 40.765625 55.71875 27.296875  Q 55.71875 13.875 49.015625 6.21875  Q 42.328125 -1.421875 30.609375 -1.421875  Q 18.84375 -1.421875 12.171875 6.21875  Q 5.515625 13.875 5.515625 27.296875  Q 5.515625 40.765625 12.171875 48.375  Q 18.84375 56 30.609375 56  z " id="DejaVuSans-111" />
      <path d="M 54.890625 33.015625  L 54.890625 0  L 45.90625 0  L 45.90625 32.71875  Q 45.90625 40.484375 42.875 44.328125  Q 39.84375 48.1875 33.796875 48.1875  Q 26.515625 48.1875 22.3125 43.546875  Q 18.109375 38.921875 18.109375 30.90625  L 18.109375 0  L 9.078125 0  L 9.078125 54.6875  L 18.109375 54.6875  L 18.109375 46.1875  Q 21.34375 51.125 25.703125 53.5625  Q 30.078125 56 35.796875 56  Q 45.21875 56 50.046875 50.171875  Q 54.890625 44.34375 54.890625 33.015625  z " id="DejaVuSans-110" />
      <path d="M 56.203125 29.59375  L 56.203125 25.203125  L 14.890625 25.203125  Q 15.484375 15.921875 20.484375 11.0625  Q 25.484375 6.203125 34.421875 6.203125  Q 39.59375 6.203125 44.453125 7.46875  Q 49.3125 8.734375 54.109375 11.28125  L 54.109375 2.78125  Q 49.265625 0.734375 44.1875 -0.34375  Q 39.109375 -1.421875 33.890625 -1.421875  Q 20.796875 -1.421875 13.15625 6.1875  Q 5.515625 13.8125 5.515625 26.8125  Q 5.515625 40.234375 12.765625 48.109375  Q 20.015625 56 32.328125 56  Q 43.359375 56 49.78125 48.890625  Q 56.203125 41.796875 56.203125 29.59375  z M 47.21875 32.234375  Q 47.125 39.59375 43.09375 43.984375  Q 39.0625 48.390625 32.421875 48.390625  Q 24.90625 48.390625 20.390625 44.140625  Q 15.875 39.890625 15.1875 32.171875  z " id="DejaVuSans-101" />
     </defs>
     <g style="fill:#444443;" transform="translate(88.505625 109.400625)scale(0.12 -0.12)">
      <use xlink:href="#DejaVuSans-78" />
      <use x="74.804688" xlink:href="#DejaVuSans-111" />
      <use x="135.986328" xlink:href="#DejaVuSans-110" />
      <use x="199.365234" xlink:href="#DejaVuSans-101" />
     </g>
    </g>
   </g>
   <g id="matplotlib.axis_2">
    <g id="ytick_1">
     <g id="line2d_3">
      <defs>
       <path d="M 0 0  L -3.5 0  " id="m8ede198777" style="stroke:#000000;stroke-width:0.3;" />
      </defs>
      <g>
       <use style="stroke:#000000;stroke-width:0.3;" x="12.09" y="81.54" xlink:href="#m8ede198777" />
      </g>
     </g>
     <g id="text_4">
      
      <g style="fill:#444443;" transform="translate(0 84.579375)scale(0.08 -0.08)">
       <use xlink:href="#DejaVuSans-48" />
      </g>
     </g>
    </g>
    <g id="ytick_2">
     <g id="line2d_4">
      <g>
       <use style="stroke:#000000;stroke-width:0.3;" x="12.09" y="3.882857" xlink:href="#m8ede198777" />
      </g>
     </g>
     <g id="text_5">
      
      <defs>
       <path d="M 19.1875 8.296875  L 53.609375 8.296875  L 53.609375 0  L 7.328125 0  L 7.328125 8.296875  Q 12.9375 14.109375 22.625 23.890625  Q 32.328125 33.6875 34.8125 36.53125  Q 39.546875 41.84375 41.421875 45.53125  Q 43.3125 49.21875 43.3125 52.78125  Q 43.3125 58.59375 39.234375 62.25  Q 35.15625 65.921875 28.609375 65.921875  Q 23.96875 65.921875 18.8125 64.3125  Q 13.671875 62.703125 7.8125 59.421875  L 7.8125 69.390625  Q 13.765625 71.78125 18.9375 73  Q 24.125 74.21875 28.421875 74.21875  Q 39.75 74.21875 46.484375 68.546875  Q 53.21875 62.890625 53.21875 53.421875  Q 53.21875 48.921875 51.53125 44.890625  Q 49.859375 40.875 45.40625 35.40625  Q 44.1875 33.984375 37.640625 27.21875  Q 31.109375 20.453125 19.1875 8.296875  z " id="DejaVuSans-50" />
      </defs>
      <g style="fill:#444443;" transform="translate(0 6.922232)scale(0.08 -0.08)">
       <use xlink:href="#DejaVuSans-50" />
      </g>
     </g>
    </g>
   </g>
   <g id="patch_42">
    <path d="M 12.09 81.54  L 12.09 0  " style="fill:none;stroke:#000000;stroke-linecap:square;stroke-linejoin:miter;stroke-width:0.3;" />
   </g>
   <g id="patch_43">
    <path d="M 12.09 81.54  L 196.23 81.54  " style="fill:none;stroke:#000000;stroke-linecap:square;stroke-linejoin:miter;stroke-width:0.3;" />
   </g>
   <g id="text_6">
    
    <defs>
     <path d="M 10.6875 12.40625  L 21 12.40625  L 21 0  L 10.6875 0  z " id="DejaVuSans-46" />
     <path d="M 10.796875 72.90625  L 49.515625 72.90625  L 49.515625 64.59375  L 19.828125 64.59375  L 19.828125 46.734375  Q 21.96875 47.46875 24.109375 47.828125  Q 26.265625 48.1875 28.421875 48.1875  Q 40.625 48.1875 47.75 41.5  Q 54.890625 34.8125 54.890625 23.390625  Q 54.890625 11.625 47.5625 5.09375  Q 40.234375 -1.421875 26.90625 -1.421875  Q 22.3125 -1.421875 17.546875 -0.640625  Q 12.796875 0.140625 7.71875 1.703125  L 7.71875 11.625  Q 12.109375 9.234375 16.796875 8.0625  Q 21.484375 6.890625 26.703125 6.890625  Q 35.15625 6.890625 40.078125 11.328125  Q 45.015625 15.765625 45.015625 23.390625  Q 45.015625 31 40.078125 35.4375  Q 35.15625 39.890625 26.703125 39.890625  Q 22.75 39.890625 18.8125 39.015625  Q 14.890625 38.140625 10.796875 36.28125  z " id="DejaVuSans-53" />
    </defs>
    <g style="fill:#444443;" transform="translate(90.869464 97.848)scale(0.08 -0.08)">
     <use xlink:href="#DejaVuSans-48" />
     <use x="63.623047" xlink:href="#DejaVuSans-46" />
     <use x="95.410156" xlink:href="#DejaVuSans-53" />
     <use x="159.033203" xlink:href="#DejaVuSans-48" />
    </g>
   </g>
  </g>
 </g>
 <defs>
  <clipPath id="pe174c89115">
   <rect height="81.54" width="184.14" x="12.09" y="0" />
  </clipPath>
 </defs>
</svg></g>

<g class="edge" id="edge7">
<title>node0-&gt;node1</title>
<path d="M123.9224,-130.699C116.5073,-121.5625 108.9062,-112.197 102.0576,-103.7585" fill="none" stroke="#444443" stroke-width=".3" />
<polygon fill="#444443" points="102.7791,-102.4258 99.1713,-100.2022 100.605,-104.1903 102.7791,-102.4258" stroke="#444443" stroke-width=".3" />
<text fill="#000000" font-family="Times,serif" font-size="14.00" text-anchor="start" x="117.5" y="-111.8">&#8804;</text>
</g>

<g class="edge" id="edge8">
<title>node0-&gt;node4</title>
<path d="M199.525,-130.699C207.1623,-121.3994 214.9946,-111.8624 222.0205,-103.3074" fill="none" stroke="#444443" stroke-width=".3" />
<polygon fill="#444443" points="223.1139,-104.1819 224.5707,-100.2022 220.9501,-102.4048 223.1139,-104.1819" stroke="#444443" stroke-width=".3" />
<text fill="#000000" font-family="Times,serif" font-size="14.00" text-anchor="start" x="217.5" y="-111.8">&gt;</text>
</g>



<g class="node" id="node8">
<title>legend</title>
<polygon fill="none" points="305,-200 246,-200 246,-154 305,-154 305,-200" stroke="#000000" stroke-width="0" />
<svg height="42px" preserveAspectRatio="xMinYMin meet" version="1.1" viewBox="0 0 73.864062 55.1125" width="55px" x="248.5" y="-198">
 <defs>
  <style type="text/css">
*{stroke-linecap:butt;stroke-linejoin:round;}
  </style>
 </defs>
 <g id="figure_1">
  <g id="patch_1">
   <path d="M 0 55.1125  L 73.864062 55.1125  L 73.864062 0  L 0 0  z " style="fill:#ffffff;" />
  </g>
  <g id="axes_1">
   <g id="legend_1">
    <g id="patch_2">
     <path d="M 2 55.1125  L 71.864063 55.1125  Q 73.864063 55.1125 73.864063 53.1125  L 73.864063 2  Q 73.864063 -0 71.864063 -0  L 2 -0  Q 0 -0 0 2  L 0 53.1125  Q 0 55.1125 2 55.1125  z " style="fill:#ffffff;opacity:0.8;stroke:#444443;stroke-linejoin:miter;stroke-width:0.5;" />
    </g>
    <g id="text_1">
     
     <defs>
      <path d="M 27.484375 70.21875  L 27.484375 54.6875  L 45.515625 54.6875  L 45.515625 42.1875  L 27.484375 42.1875  L 27.484375 19  Q 27.484375 15.1875 29 13.84375  Q 30.515625 12.5 35.015625 12.5  L 44 12.5  L 44 0  L 29 0  Q 18.65625 0 14.328125 4.3125  Q 10.015625 8.640625 10.015625 19  L 10.015625 42.1875  L 1.3125 42.1875  L 1.3125 54.6875  L 10.015625 54.6875  L 10.015625 70.21875  z " id="DejaVuSans-Bold-116" />
      <path d="M 32.90625 24.609375  Q 27.4375 24.609375 24.671875 22.75  Q 21.921875 20.90625 21.921875 17.28125  Q 21.921875 13.96875 24.140625 12.078125  Q 26.375 10.203125 30.328125 10.203125  Q 35.25 10.203125 38.625 13.734375  Q 42 17.28125 42 22.609375  L 42 24.609375  z M 59.625 31.203125  L 59.625 0  L 42 0  L 42 8.109375  Q 38.484375 3.125 34.078125 0.84375  Q 29.6875 -1.421875 23.390625 -1.421875  Q 14.890625 -1.421875 9.59375 3.53125  Q 4.296875 8.5 4.296875 16.40625  Q 4.296875 26.03125 10.90625 30.515625  Q 17.53125 35.015625 31.6875 35.015625  L 42 35.015625  L 42 36.375  Q 42 40.53125 38.71875 42.453125  Q 35.453125 44.390625 28.515625 44.390625  Q 22.90625 44.390625 18.0625 43.265625  Q 13.234375 42.140625 9.078125 39.890625  L 9.078125 53.21875  Q 14.703125 54.59375 20.359375 55.296875  Q 26.03125 56 31.6875 56  Q 46.484375 56 53.046875 50.171875  Q 59.625 44.34375 59.625 31.203125  z " id="DejaVuSans-Bold-97" />
      <path d="M 49.03125 39.796875  Q 46.734375 40.875 44.453125 41.375  Q 42.1875 41.890625 39.890625 41.890625  Q 33.15625 41.890625 29.515625 37.5625  Q 25.875 33.25 25.875 25.203125  L 25.875 0  L 8.40625 0  L 8.40625 54.6875  L 25.875 54.6875  L 25.875 45.703125  Q 29.25 51.078125 33.609375 53.53125  Q 37.984375 56 44.09375 56  Q 44.96875 56 45.984375 55.921875  Q 47.015625 55.859375 48.96875 55.609375  z " id="DejaVuSans-Bold-114" />
      <path d="M 45.609375 9.28125  Q 42 4.5 37.640625 2.25  Q 33.296875 0 27.59375 0  Q 17.578125 0 11.03125 7.875  Q 4.5 15.765625 4.5 27.984375  Q 4.5 40.234375 11.03125 48.0625  Q 17.578125 55.90625 27.59375 55.90625  Q 33.296875 55.90625 37.640625 53.65625  Q 42 51.421875 45.609375 46.578125  L 45.609375 54.6875  L 63.1875 54.6875  L 63.1875 5.515625  Q 63.1875 -7.671875 54.859375 -14.625  Q 46.53125 -21.578125 30.71875 -21.578125  Q 25.59375 -21.578125 20.796875 -20.796875  Q 16.015625 -20.015625 11.1875 -18.40625  L 11.1875 -4.78125  Q 15.765625 -7.421875 20.15625 -8.71875  Q 24.5625 -10.015625 29 -10.015625  Q 37.59375 -10.015625 41.59375 -6.25  Q 45.609375 -2.484375 45.609375 5.515625  z M 34.078125 43.3125  Q 28.65625 43.3125 25.625 39.296875  Q 22.609375 35.296875 22.609375 27.984375  Q 22.609375 20.453125 25.53125 16.578125  Q 28.46875 12.703125 34.078125 12.703125  Q 39.546875 12.703125 42.578125 16.703125  Q 45.609375 20.703125 45.609375 27.984375  Q 45.609375 35.296875 42.578125 39.296875  Q 39.546875 43.3125 34.078125 43.3125  z " id="DejaVuSans-Bold-103" />
      <path d="M 62.984375 27.484375  L 62.984375 22.515625  L 22.125 22.515625  Q 22.75 16.359375 26.5625 13.28125  Q 30.375 10.203125 37.203125 10.203125  Q 42.71875 10.203125 48.5 11.84375  Q 54.296875 13.484375 60.40625 16.796875  L 60.40625 3.328125  Q 54.203125 0.984375 48 -0.21875  Q 41.796875 -1.421875 35.59375 -1.421875  Q 20.75 -1.421875 12.515625 6.125  Q 4.296875 13.671875 4.296875 27.296875  Q 4.296875 40.671875 12.375 48.328125  Q 20.453125 56 34.625 56  Q 47.515625 56 55.25 48.234375  Q 62.984375 40.484375 62.984375 27.484375  z M 45.015625 33.296875  Q 45.015625 38.28125 42.109375 41.328125  Q 39.203125 44.390625 34.515625 44.390625  Q 29.4375 44.390625 26.265625 41.53125  Q 23.09375 38.671875 22.3125 33.296875  z " id="DejaVuSans-Bold-101" />
     </defs>
     <g style="fill:#444443;" transform="translate(19.342188 15.598437)scale(0.1 -0.1)">
      <use xlink:href="#DejaVuSans-Bold-116" />
      <use x="47.802734" xlink:href="#DejaVuSans-Bold-97" />
      <use x="115.283203" xlink:href="#DejaVuSans-Bold-114" />
      <use x="164.599609" xlink:href="#DejaVuSans-Bold-103" />
      <use x="236.181641" xlink:href="#DejaVuSans-Bold-101" />
      <use x="304.003906" xlink:href="#DejaVuSans-Bold-116" />
     </g>
    </g>
    <g id="patch_3">
     <path d="M 8 30.354687  L 28 30.354687  L 28 23.354687  L 8 23.354687  z " style="fill:#fefebb;stroke:#444443;stroke-linejoin:miter;stroke-width:0.4;" />
    </g>
    <g id="text_2">
     
     <defs>
      <path d="M 48.78125 52.59375  L 48.78125 44.1875  Q 44.96875 46.296875 41.140625 47.34375  Q 37.3125 48.390625 33.40625 48.390625  Q 24.65625 48.390625 19.8125 42.84375  Q 14.984375 37.3125 14.984375 27.296875  Q 14.984375 17.28125 19.8125 11.734375  Q 24.65625 6.203125 33.40625 6.203125  Q 37.3125 6.203125 41.140625 7.25  Q 44.96875 8.296875 48.78125 10.40625  L 48.78125 2.09375  Q 45.015625 0.34375 40.984375 -0.53125  Q 36.96875 -1.421875 32.421875 -1.421875  Q 20.0625 -1.421875 12.78125 6.34375  Q 5.515625 14.109375 5.515625 27.296875  Q 5.515625 40.671875 12.859375 48.328125  Q 20.21875 56 33.015625 56  Q 37.15625 56 41.109375 55.140625  Q 45.0625 54.296875 48.78125 52.59375  z " id="DejaVuSans-99" />
      <path d="M 9.421875 75.984375  L 18.40625 75.984375  L 18.40625 0  L 9.421875 0  z " id="DejaVuSans-108" />
      <path d="M 34.28125 27.484375  Q 23.390625 27.484375 19.1875 25  Q 14.984375 22.515625 14.984375 16.5  Q 14.984375 11.71875 18.140625 8.90625  Q 21.296875 6.109375 26.703125 6.109375  Q 34.1875 6.109375 38.703125 11.40625  Q 43.21875 16.703125 43.21875 25.484375  L 43.21875 27.484375  z M 52.203125 31.203125  L 52.203125 0  L 43.21875 0  L 43.21875 8.296875  Q 40.140625 3.328125 35.546875 0.953125  Q 30.953125 -1.421875 24.3125 -1.421875  Q 15.921875 -1.421875 10.953125 3.296875  Q 6 8.015625 6 15.921875  Q 6 25.140625 12.171875 29.828125  Q 18.359375 34.515625 30.609375 34.515625  L 43.21875 34.515625  L 43.21875 35.40625  Q 43.21875 41.609375 39.140625 45  Q 35.0625 48.390625 27.6875 48.390625  Q 23 48.390625 18.546875 47.265625  Q 14.109375 46.140625 10.015625 43.890625  L 10.015625 52.203125  Q 14.9375 54.109375 19.578125 55.046875  Q 24.21875 56 28.609375 56  Q 40.484375 56 46.34375 49.84375  Q 52.203125 43.703125 52.203125 31.203125  z " id="DejaVuSans-97" />
      <path d="M 44.28125 53.078125  L 44.28125 44.578125  Q 40.484375 46.53125 36.375 47.5  Q 32.28125 48.484375 27.875 48.484375  Q 21.1875 48.484375 17.84375 46.4375  Q 14.5 44.390625 14.5 40.28125  Q 14.5 37.15625 16.890625 35.375  Q 19.28125 33.59375 26.515625 31.984375  L 29.59375 31.296875  Q 39.15625 29.25 43.1875 25.515625  Q 47.21875 21.78125 47.21875 15.09375  Q 47.21875 7.46875 41.1875 3.015625  Q 35.15625 -1.421875 24.609375 -1.421875  Q 20.21875 -1.421875 15.453125 -0.5625  Q 10.6875 0.296875 5.421875 2  L 5.421875 11.28125  Q 10.40625 8.6875 15.234375 7.390625  Q 20.0625 6.109375 24.8125 6.109375  Q 31.15625 6.109375 34.5625 8.28125  Q 37.984375 10.453125 37.984375 14.40625  Q 37.984375 18.0625 35.515625 20.015625  Q 33.0625 21.96875 24.703125 23.78125  L 21.578125 24.515625  Q 13.234375 26.265625 9.515625 29.90625  Q 5.8125 33.546875 5.8125 39.890625  Q 5.8125 47.609375 11.28125 51.796875  Q 16.75 56 26.8125 56  Q 31.78125 56 36.171875 55.265625  Q 40.578125 54.546875 44.28125 53.078125  z " id="DejaVuSans-115" />
      <path id="DejaVuSans-32" />
      <path d="M 31.78125 66.40625  Q 24.171875 66.40625 20.328125 58.90625  Q 16.5 51.421875 16.5 36.375  Q 16.5 21.390625 20.328125 13.890625  Q 24.171875 6.390625 31.78125 6.390625  Q 39.453125 6.390625 43.28125 13.890625  Q 47.125 21.390625 47.125 36.375  Q 47.125 51.421875 43.28125 58.90625  Q 39.453125 66.40625 31.78125 66.40625  z M 31.78125 74.21875  Q 44.046875 74.21875 50.515625 64.515625  Q 56.984375 54.828125 56.984375 36.375  Q 56.984375 17.96875 50.515625 8.265625  Q 44.046875 -1.421875 31.78125 -1.421875  Q 19.53125 -1.421875 13.0625 8.265625  Q 6.59375 17.96875 6.59375 36.375  Q 6.59375 54.828125 13.0625 64.515625  Q 19.53125 74.21875 31.78125 74.21875  z " id="DejaVuSans-48" />
     </defs>
     <g style="fill:#444443;" transform="translate(31.5 30.354687)scale(0.1 -0.1)">
      <use xlink:href="#DejaVuSans-99" />
      <use x="54.980469" xlink:href="#DejaVuSans-108" />
      <use x="82.763672" xlink:href="#DejaVuSans-97" />
      <use x="144.042969" xlink:href="#DejaVuSans-115" />
      <use x="196.142578" xlink:href="#DejaVuSans-115" />
      <use x="248.242188" xlink:href="#DejaVuSans-32" />
      <use x="280.029297" xlink:href="#DejaVuSans-48" />
     </g>
    </g>
    <g id="patch_4">
     <path d="M 8 45.032812  L 28 45.032812  L 28 38.032812  L 8 38.032812  z " style="fill:#a1dab4;stroke:#444443;stroke-linejoin:miter;stroke-width:0.4;" />
    </g>
    <g id="text_3">
     
     <defs>
      <path d="M 12.40625 8.296875  L 28.515625 8.296875  L 28.515625 63.921875  L 10.984375 60.40625  L 10.984375 69.390625  L 28.421875 72.90625  L 38.28125 72.90625  L 38.28125 8.296875  L 54.390625 8.296875  L 54.390625 0  L 12.40625 0  z " id="DejaVuSans-49" />
     </defs>
     <g style="fill:#444443;" transform="translate(31.5 45.032812)scale(0.1 -0.1)">
      <use xlink:href="#DejaVuSans-99" />
      <use x="54.980469" xlink:href="#DejaVuSans-108" />
      <use x="82.763672" xlink:href="#DejaVuSans-97" />
      <use x="144.042969" xlink:href="#DejaVuSans-115" />
      <use x="196.142578" xlink:href="#DejaVuSans-115" />
      <use x="248.242188" xlink:href="#DejaVuSans-32" />
      <use x="280.029297" xlink:href="#DejaVuSans-49" />
     </g>
    </g>
   </g>
  </g>
 </g>
</svg></g>
</g>
</svg>