<?xml version="1.0" encoding="UTF-8" standalone="no"?>
<!DOCTYPE svg PUBLIC "-//W3C//DTD SVG 1.1//EN"
 "http://www.w3.org/Graphics/SVG/1.1/DTD/svg11.dtd">
<!-- Generated by graphviz version 2.40.1 (20161225.0304)
 -->
<!-- Title: Tree Pages: 1 -->
<svg width="446pt" height="269pt"
 viewBox="0.00 0.00 446.00 269.00" xmlns="http://www.w3.org/2000/svg" xmlns:xlink="http://www.w3.org/1999/xlink">
<g id="graph0" class="graph" transform="scale(1 1) rotate(0) translate(4 265)">
<title>Tree</title>
<polygon fill="#ffffff" stroke="transparent" points="-4,4 -4,-265 442,-265 442,4 -4,4"/>
<!-- 0 -->
<g id="node1" class="node">
<title>0</title>
<path fill="#ffffff" stroke="#000000" d="M255,-261C255,-261 183,-261 183,-261 177,-261 171,-255 171,-249 171,-249 171,-205 171,-205 171,-199 177,-193 183,-193 183,-193 255,-193 255,-193 261,-193 267,-199 267,-205 267,-205 267,-249 267,-249 267,-255 261,-261 255,-261"/>
<text text-anchor="start" x="194.5" y="-245.8" font-family="Helvetica,sans-Serif" font-size="14.00" fill="#000000">x1 ≤ 0.5</text>
<text text-anchor="start" x="179" y="-230.8" font-family="Helvetica,sans-Serif" font-size="14.00" fill="#000000">entropy = 1.0</text>
<text text-anchor="start" x="181.5" y="-215.8" font-family="Helvetica,sans-Serif" font-size="14.00" fill="#000000">samples = 4</text>
<text text-anchor="start" x="179.5" y="-200.8" font-family="Helvetica,sans-Serif" font-size="14.00" fill="#000000">value = [2, 2]</text>
</g>
<!-- 1 -->
<g id="node2" class="node">
<title>1</title>
<path fill="#ffffff" stroke="#000000" d="M198,-157C198,-157 126,-157 126,-157 120,-157 114,-151 114,-145 114,-145 114,-101 114,-101 114,-95 120,-89 126,-89 126,-89 198,-89 198,-89 204,-89 210,-95 210,-101 210,-101 210,-145 210,-145 210,-151 204,-157 198,-157"/>
<text text-anchor="start" x="137.5" y="-141.8" font-family="Helvetica,sans-Serif" font-size="14.00" fill="#000000">x2 ≤ 0.5</text>
<text text-anchor="start" x="122" y="-126.8" font-family="Helvetica,sans-Serif" font-size="14.00" fill="#000000">entropy = 1.0</text>
<text text-anchor="start" x="124.5" y="-111.8" font-family="Helvetica,sans-Serif" font-size="14.00" fill="#000000">samples = 2</text>
<text text-anchor="start" x="122.5" y="-96.8" font-family="Helvetica,sans-Serif" font-size="14.00" fill="#000000">value = [1, 1]</text>
</g>
<!-- 0&#45;&gt;1 -->
<g id="edge1" class="edge">
<title>0&#45;&gt;1</title>
<path fill="none" stroke="#000000" d="M200.3361,-192.9465C195.612,-184.3271 190.4769,-174.9579 185.546,-165.9611"/>
<polygon fill="#000000" stroke="#000000" points="188.5814,-164.2171 180.7059,-157.13 182.4429,-167.5815 188.5814,-164.2171"/>
<text text-anchor="middle" x="173.7001" y="-177.4283" font-family="Helvetica,sans-Serif" font-size="14.00" fill="#000000">True</text>
</g>
<!-- 4 -->
<g id="node5" class="node">
<title>4</title>
<path fill="#ffffff" stroke="#000000" d="M312,-157C312,-157 240,-157 240,-157 234,-157 228,-151 228,-145 228,-145 228,-101 228,-101 228,-95 234,-89 240,-89 240,-89 312,-89 312,-89 318,-89 324,-95 324,-101 324,-101 324,-145 324,-145 324,-151 318,-157 312,-157"/>
<text text-anchor="start" x="251.5" y="-141.8" font-family="Helvetica,sans-Serif" font-size="14.00" fill="#000000">x2 ≤ 0.5</text>
<text text-anchor="start" x="236" y="-126.8" font-family="Helvetica,sans-Serif" font-size="14.00" fill="#000000">entropy = 1.0</text>
<text text-anchor="start" x="238.5" y="-111.8" font-family="Helvetica,sans-Serif" font-size="14.00" fill="#000000">samples = 2</text>
<text text-anchor="start" x="236.5" y="-96.8" font-family="Helvetica,sans-Serif" font-size="14.00" fill="#000000">value = [1, 1]</text>
</g>
<!-- 0&#45;&gt;4 -->
<g id="edge4" class="edge">
<title>0&#45;&gt;4</title>
<path fill="none" stroke="#000000" d="M237.6639,-192.9465C242.388,-184.3271 247.5231,-174.9579 252.454,-165.9611"/>
<polygon fill="#000000" stroke="#000000" points="255.5571,-167.5815 257.2941,-157.13 249.4186,-164.2171 255.5571,-167.5815"/>
<text text-anchor="middle" x="264.2999" y="-177.4283" font-family="Helvetica,sans-Serif" font-size="14.00" fill="#000000">False</text>
</g>
<!-- 2 -->
<g id="node3" class="node">
<title>2</title>
<path fill="#e58139" stroke="#000000" d="M84,-53C84,-53 12,-53 12,-53 6,-53 0,-47 0,-41 0,-41 0,-12 0,-12 0,-6 6,0 12,0 12,0 84,0 84,0 90,0 96,-6 96,-12 96,-12 96,-41 96,-41 96,-47 90,-53 84,-53"/>
<text text-anchor="start" x="8" y="-37.8" font-family="Helvetica,sans-Serif" font-size="14.00" fill="#000000">entropy = 0.0</text>
<text text-anchor="start" x="10.5" y="-22.8" font-family="Helvetica,sans-Serif" font-size="14.00" fill="#000000">samples = 1</text>
<text text-anchor="start" x="8.5" y="-7.8" font-family="Helvetica,sans-Serif" font-size="14.00" fill="#000000">value = [1, 0]</text>
</g>
<!-- 1&#45;&gt;2 -->
<g id="edge2" class="edge">
<title>1&#45;&gt;2</title>
<path fill="none" stroke="#000000" d="M121.8079,-88.9777C110.6658,-79.546 98.5827,-69.3178 87.4815,-59.9208"/>
<polygon fill="#000000" stroke="#000000" points="89.4932,-57.038 79.5992,-53.2485 84.9705,-62.3809 89.4932,-57.038"/>
</g>
<!-- 3 -->
<g id="node4" class="node">
<title>3</title>
<path fill="#399de5" stroke="#000000" d="M198,-53C198,-53 126,-53 126,-53 120,-53 114,-47 114,-41 114,-41 114,-12 114,-12 114,-6 120,0 126,0 126,0 198,0 198,0 204,0 210,-6 210,-12 210,-12 210,-41 210,-41 210,-47 204,-53 198,-53"/>
<text text-anchor="start" x="122" y="-37.8" font-family="Helvetica,sans-Serif" font-size="14.00" fill="#000000">entropy = 0.0</text>
<text text-anchor="start" x="124.5" y="-22.8" font-family="Helvetica,sans-Serif" font-size="14.00" fill="#000000">samples = 1</text>
<text text-anchor="start" x="122.5" y="-7.8" font-family="Helvetica,sans-Serif" font-size="14.00" fill="#000000">value = [0, 1]</text>
</g>
<!-- 1&#45;&gt;3 -->
<g id="edge3" class="edge">
<title>1&#45;&gt;3</title>
<path fill="none" stroke="#000000" d="M162,-88.9777C162,-80.7364 162,-71.887 162,-63.5153"/>
<polygon fill="#000000" stroke="#000000" points="165.5001,-63.2484 162,-53.2485 158.5001,-63.2485 165.5001,-63.2484"/>
</g>
<!-- 5 -->
<g id="node6" class="node">
<title>5</title>
<path fill="#399de5" stroke="#000000" d="M312,-53C312,-53 240,-53 240,-53 234,-53 228,-47 228,-41 228,-41 228,-12 228,-12 228,-6 234,0 240,0 240,0 312,0 312,0 318,0 324,-6 324,-12 324,-12 324,-41 324,-41 324,-47 318,-53 312,-53"/>
<text text-anchor="start" x="236" y="-37.8" font-family="Helvetica,sans-Serif" font-size="14.00" fill="#000000">entropy = 0.0</text>
<text text-anchor="start" x="238.5" y="-22.8" font-family="Helvetica,sans-Serif" font-size="14.00" fill="#000000">samples = 1</text>
<text text-anchor="start" x="236.5" y="-7.8" font-family="Helvetica,sans-Serif" font-size="14.00" fill="#000000">value = [0, 1]</text>
</g>
<!-- 4&#45;&gt;5 -->
<g id="edge5" class="edge">
<title>4&#45;&gt;5</title>
<path fill="none" stroke="#000000" d="M276,-88.9777C276,-80.7364 276,-71.887 276,-63.5153"/>
<polygon fill="#000000" stroke="#000000" points="279.5001,-63.2484 276,-53.2485 272.5001,-63.2485 279.5001,-63.2484"/>
</g>
<!-- 6 -->
<g id="node7" class="node">
<title>6</title>
<path fill="#e58139" stroke="#000000" d="M426,-53C426,-53 354,-53 354,-53 348,-53 342,-47 342,-41 342,-41 342,-12 342,-12 342,-6 348,0 354,0 354,0 426,0 426,0 432,0 438,-6 438,-12 438,-12 438,-41 438,-41 438,-47 432,-53 426,-53"/>
<text text-anchor="start" x="350" y="-37.8" font-family="Helvetica,sans-Serif" font-size="14.00" fill="#000000">entropy = 0.0</text>
<text text-anchor="start" x="352.5" y="-22.8" font-family="Helvetica,sans-Serif" font-size="14.00" fill="#000000">samples = 1</text>
<text text-anchor="start" x="350.5" y="-7.8" font-family="Helvetica,sans-Serif" font-size="14.00" fill="#000000">value = [1, 0]</text>
</g>
<!-- 4&#45;&gt;6 -->
<g id="edge6" class="edge">
<title>4&#45;&gt;6</title>
<path fill="none" stroke="#000000" d="M316.1921,-88.9777C327.3342,-79.546 339.4173,-69.3178 350.5185,-59.9208"/>
<polygon fill="#000000" stroke="#000000" points="353.0295,-62.3809 358.4008,-53.2485 348.5068,-57.038 353.0295,-62.3809"/>
</g>
</g>
</svg>
