<?xml version="1.0" encoding="UTF-8" standalone="no"?>
<!DOCTYPE svg PUBLIC "-//W3C//DTD SVG 1.1//EN"
 "http://www.w3.org/Graphics/SVG/1.1/DTD/svg11.dtd">
<!-- Generated by graphviz version 2.40.1 (20161225.0304)
 -->
<!-- Title: Tree Pages: 1 -->
<svg width="218pt" height="165pt"
 viewBox="0.00 0.00 218.00 165.00" xmlns="http://www.w3.org/2000/svg" xmlns:xlink="http://www.w3.org/1999/xlink">
<g id="graph0" class="graph" transform="scale(1 1) rotate(0) translate(4 161)">
<title>Tree</title>
<polygon fill="#ffffff" stroke="transparent" points="-4,4 -4,-161 214,-161 214,4 -4,4"/>
<!-- 0 -->
<g id="node1" class="node">
<title>0</title>
<path fill="#9ccef2" stroke="#000000" d="M148.5,-157C148.5,-157 61.5,-157 61.5,-157 55.5,-157 49.5,-151 49.5,-145 49.5,-145 49.5,-101 49.5,-101 49.5,-95 55.5,-89 61.5,-89 61.5,-89 148.5,-89 148.5,-89 154.5,-89 160.5,-95 160.5,-101 160.5,-101 160.5,-145 160.5,-145 160.5,-151 154.5,-157 148.5,-157"/>
<text text-anchor="start" x="80.5" y="-141.8" font-family="Helvetica,sans-Serif" font-size="14.00" fill="#000000">x2 ≤ 0.5</text>
<text text-anchor="start" x="57.5" y="-126.8" font-family="Helvetica,sans-Serif" font-size="14.00" fill="#000000">entropy = 0.918</text>
<text text-anchor="start" x="67.5" y="-111.8" font-family="Helvetica,sans-Serif" font-size="14.00" fill="#000000">samples = 3</text>
<text text-anchor="start" x="65.5" y="-96.8" font-family="Helvetica,sans-Serif" font-size="14.00" fill="#000000">value = [1, 2]</text>
</g>
<!-- 1 -->
<g id="node2" class="node">
<title>1</title>
<path fill="#e58139" stroke="#000000" d="M84,-53C84,-53 12,-53 12,-53 6,-53 0,-47 0,-41 0,-41 0,-12 0,-12 0,-6 6,0 12,0 12,0 84,0 84,0 90,0 96,-6 96,-12 96,-12 96,-41 96,-41 96,-47 90,-53 84,-53"/>
<text text-anchor="start" x="8" y="-37.8" font-family="Helvetica,sans-Serif" font-size="14.00" fill="#000000">entropy = 0.0</text>
<text text-anchor="start" x="10.5" y="-22.8" font-family="Helvetica,sans-Serif" font-size="14.00" fill="#000000">samples = 1</text>
<text text-anchor="start" x="8.5" y="-7.8" font-family="Helvetica,sans-Serif" font-size="14.00" fill="#000000">value = [1, 0]</text>
</g>
<!-- 0&#45;&gt;1 -->
<g id="edge1" class="edge">
<title>0&#45;&gt;1</title>
<path fill="none" stroke="#000000" d="M84.9039,-88.9777C79.7656,-80.2786 74.227,-70.9018 69.0425,-62.1247"/>
<polygon fill="#000000" stroke="#000000" points="71.899,-60.0786 63.7996,-53.2485 65.8719,-63.6387 71.899,-60.0786"/>
<text text-anchor="middle" x="57.5694" y="-73.7597" font-family="Helvetica,sans-Serif" font-size="14.00" fill="#000000">True</text>
</g>
<!-- 2 -->
<g id="node3" class="node">
<title>2</title>
<path fill="#399de5" stroke="#000000" d="M198,-53C198,-53 126,-53 126,-53 120,-53 114,-47 114,-41 114,-41 114,-12 114,-12 114,-6 120,0 126,0 126,0 198,0 198,0 204,0 210,-6 210,-12 210,-12 210,-41 210,-41 210,-47 204,-53 198,-53"/>
<text text-anchor="start" x="122" y="-37.8" font-family="Helvetica,sans-Serif" font-size="14.00" fill="#000000">entropy = 0.0</text>
<text text-anchor="start" x="124.5" y="-22.8" font-family="Helvetica,sans-Serif" font-size="14.00" fill="#000000">samples = 2</text>
<text text-anchor="start" x="122.5" y="-7.8" font-family="Helvetica,sans-Serif" font-size="14.00" fill="#000000">value = [0, 2]</text>
</g>
<!-- 0&#45;&gt;2 -->
<g id="edge2" class="edge">
<title>0&#45;&gt;2</title>
<path fill="none" stroke="#000000" d="M125.0961,-88.9777C130.2344,-80.2786 135.773,-70.9018 140.9575,-62.1247"/>
<polygon fill="#000000" stroke="#000000" points="144.1281,-63.6387 146.2004,-53.2485 138.101,-60.0786 144.1281,-63.6387"/>
<text text-anchor="middle" x="152.4306" y="-73.7597" font-family="Helvetica,sans-Serif" font-size="14.00" fill="#000000">False</text>
</g>
</g>
</svg>
